<svg width="25" height="24" viewBox="0 0 25 24" fill="none" xmlns="http://www.w3.org/2000/svg">
<path d="M16.8748 3.24984C18.0342 3.25331 19.1451 3.71539 19.9648 4.53517C20.7846 5.35495 21.2467 6.46582 21.2502 7.62516V16.3748C21.2467 17.5342 20.7846 18.6451 19.9648 19.4648C19.1451 20.2846 18.0342 20.7467 16.8748 20.7502H8.12516C6.96582 20.7467 5.85495 20.2846 5.03517 19.4648C4.21539 18.6451 3.75331 17.5342 3.74984 16.3748V7.62516C3.75331 6.46582 4.21539 5.35495 5.03517 4.53517C5.85495 3.71539 6.96582 3.25331 8.12516 3.24984H16.8748ZM16.8748 1.5H8.12516C4.75625 1.5 2 4.25625 2 7.62516V16.3748C2 19.7437 4.75625 22.5 8.12516 22.5H16.8748C20.2437 22.5 23 19.7437 23 16.3748V7.62516C23 4.25625 20.2437 1.5 16.8748 1.5Z" fill="white"/>
<path d="M18.1873 7.62524C17.9278 7.62524 17.674 7.54827 17.4582 7.40405C17.2423 7.25983 17.0741 7.05484 16.9748 6.81502C16.8754 6.57519 16.8494 6.31129 16.9001 6.05669C16.9507 5.80209 17.0757 5.56822 17.2593 5.38467C17.4428 5.20111 17.6767 5.07611 17.9313 5.02546C18.1859 4.97482 18.4498 5.00081 18.6896 5.10015C18.9294 5.19949 19.1344 5.36772 19.2786 5.58356C19.4229 5.7994 19.4998 6.05316 19.4998 6.31274C19.5002 6.48521 19.4665 6.65605 19.4007 6.81545C19.3349 6.97486 19.2382 7.1197 19.1163 7.24165C18.9943 7.3636 18.8495 7.46026 18.6901 7.52609C18.5306 7.59192 18.3598 7.62562 18.1873 7.62524ZM12.5 8.49993C13.1923 8.49993 13.869 8.70521 14.4446 9.08982C15.0202 9.47442 15.4688 10.0211 15.7337 10.6606C15.9986 11.3002 16.068 12.004 15.9329 12.6829C15.7978 13.3619 15.4645 13.9856 14.975 14.4751C14.4855 14.9646 13.8618 15.2979 13.1828 15.433C12.5039 15.568 11.8001 15.4987 11.1606 15.2338C10.521 14.9689 9.97433 14.5203 9.58973 13.9447C9.20513 13.3691 8.99985 12.6924 8.99985 12.0001C9.00084 11.0721 9.36992 10.1824 10.0261 9.5262C10.6823 8.87001 11.572 8.50092 12.5 8.49993ZM12.5 6.75009C11.4617 6.75009 10.4466 7.058 9.58326 7.63487C8.7199 8.21175 8.04699 9.03169 7.64963 9.991C7.25227 10.9503 7.14831 12.0059 7.35088 13.0243C7.55345 14.0427 8.05347 14.9782 8.78769 15.7124C9.52192 16.4466 10.4574 16.9466 11.4758 17.1492C12.4942 17.3518 13.5498 17.2478 14.5091 16.8505C15.4684 16.4531 16.2883 15.7802 16.8652 14.9168C17.4421 14.0535 17.75 13.0384 17.75 12.0001C17.75 10.6077 17.1969 9.27234 16.2123 8.28778C15.2277 7.30321 13.8924 6.75009 12.5 6.75009Z" fill="white"/>
</svg>
