<svg width="327" height="192" viewBox="0 0 327 192" fill="none" xmlns="http://www.w3.org/2000/svg">
<g clip-path="url(#clip0)">
<path opacity="0.1" d="M30.7961 55.3248C37.5165 70.5066 28.9439 87.9887 18.853 101.153C15.4755 105.567 11.7469 110.195 11.2787 115.732C10.7141 122.505 15.2999 128.731 20.7396 132.801C30.6619 140.218 44.2128 142.511 56.0217 138.768C66.2263 135.535 74.8058 128.231 85.0999 125.287C102.314 120.356 120.561 128.531 135.303 138.717C145.738 145.917 156.914 154.69 169.494 153.148C178.346 152.063 185.858 145.848 190.957 138.531C193.418 134.998 195.56 131.038 199.144 128.655C201.275 127.236 203.778 126.486 206.281 125.948C229.138 121.062 253.396 132.987 275.95 126.854C291.184 122.722 303.331 110.67 310.884 96.8037C318.438 82.9372 321.963 67.2802 324.9 51.7677C326.986 40.7489 328.718 28.8452 323.922 18.7113C318.847 7.98175 307.1 1.47721 295.295 0.258249C283.49 -0.960707 271.65 2.40348 260.774 7.14845C247.185 13.0917 233.865 21.4109 219.033 21.4385C208.932 21.4591 199.299 17.5819 189.641 14.624C173.495 9.68278 156.704 7.22765 139.972 4.9619C123.952 2.79257 107.774 0.774756 91.6585 2.05569C80.2558 2.9613 70.1856 7.32062 59.1203 9.33844C51.9076 10.6538 44.6604 9.68278 37.5819 11.8865C28.8647 14.6137 19.8996 20.9323 19.4176 30.8837C18.9631 40.3564 27.2328 47.2707 30.7961 55.3248Z" fill="#2684FF"/>
<path d="M144.523 174.201L138.901 179.589C137.613 185.099 134.449 186.032 134.449 186.032C125.901 187.554 129.764 179.49 129.764 179.49L135.186 170.313L135.854 169.18C135.854 169.18 139.72 168.009 142.296 168.712C142.621 168.801 142.921 168.963 143.174 169.187C144.788 170.588 144.523 174.201 144.523 174.201Z" fill="#444176"/>
<path d="M179.189 179.004C175.206 180.175 172.396 175.96 172.648 174.903C172.899 173.846 169.009 165.544 169.009 165.544L169.312 163.354L169.594 161.326L176.135 161.794L176.751 163.089L180.587 171.163C180.587 171.163 183.172 177.833 179.189 179.004Z" fill="#444176"/>
<path opacity="0.1" d="M143.236 170.103C142.619 171.16 137.624 170.626 135.19 170.296L135.858 169.163C135.858 169.163 139.724 167.992 142.299 168.695C142.624 168.784 142.925 168.946 143.177 169.17C143.211 169.741 143.236 170.103 143.236 170.103Z" fill="black"/>
<path opacity="0.1" d="M176.758 163.082C173.408 165.313 169.842 163.626 169.305 163.347L169.587 161.319L176.128 161.787L176.758 163.082Z" fill="black"/>
<path d="M177.667 151.361C176.497 153.234 177.667 161.904 177.667 161.904C173.801 165.42 169.236 162.841 169.236 162.841L168.547 141.64C168.547 141.64 160.935 124.185 155.547 124.654C150.159 125.122 141.259 143.981 141.259 143.981C141.259 143.981 143.717 160.145 143.249 161.543C142.781 162.941 143.249 169.741 143.249 169.741C142.43 171.146 133.881 169.741 133.881 169.741L131.423 139.285L134.687 132.487C136.563 125.835 139.751 118.714 141.659 114.72C142.605 112.733 143.239 111.521 143.239 111.521L149.47 110.223L169.697 106.029L176.965 132.487C178.37 135.063 179.189 140.92 179.189 140.92C179.189 140.92 178.838 149.487 177.667 151.361Z" fill="#565387"/>
<g opacity="0.1">
<path opacity="0.1" d="M171.109 162.841L170.42 141.64C170.42 141.64 162.808 124.185 157.42 124.654C157.179 124.677 156.942 124.73 156.714 124.812C161.968 126.558 168.547 141.64 168.547 141.64L169.236 162.841C170.672 163.573 172.292 163.868 173.894 163.691C172.923 163.574 171.98 163.287 171.109 162.841Z" fill="black"/>
<path opacity="0.1" d="M135.74 169.752L133.282 139.295L136.56 132.487C138.436 125.835 141.624 118.714 143.532 114.72C144.478 112.733 145.112 111.521 145.112 111.521L151.343 110.223L169.807 106.383L169.707 106.015L149.471 110.223L143.239 111.521C143.239 111.521 142.606 112.733 141.659 114.72C139.745 118.714 136.563 125.849 134.687 132.487L131.409 139.281L133.868 169.738C133.868 169.738 138.536 170.506 141.304 170.337C139.441 170.236 137.584 170.04 135.74 169.752Z" fill="black"/>
</g>
<path d="M121.497 75.3996C121.497 75.3996 114.822 75.744 115.758 82.7788L117.631 83.0129L120.441 79.969L121.845 77.3933V76.808L121.497 75.3996Z" fill="#CED2DF"/>
<path opacity="0.1" d="M121.497 75.3996C121.497 75.3996 114.822 75.744 115.758 82.7788L117.631 83.0129L120.441 79.969L121.845 77.3933V76.808L121.497 75.3996Z" fill="black"/>
<path d="M195.763 77.9753C195.763 77.9753 201.271 80.9022 199.863 84.3008L198.107 84.9894L195.766 83.7016L195.422 80.6577L195.656 78.5503L195.763 77.9753Z" fill="#CED2DF"/>
<path opacity="0.1" d="M195.763 77.9753C195.763 77.9753 201.271 80.9022 199.863 84.3008L198.107 84.9894L195.766 83.7016L195.422 80.6577L195.656 78.5503L195.763 77.9753Z" fill="black"/>
<path d="M160.395 47.7528H155.709C151.699 47.7528 148.448 51.0041 148.448 55.0149C148.448 59.0256 151.699 62.277 155.709 62.277H160.395C164.405 62.277 167.656 59.0256 167.656 55.0149C167.656 51.0041 164.405 47.7528 160.395 47.7528Z" fill="#88455E"/>
<path d="M121.453 76.3948L117.352 82.9372L117.008 81.7733L111.437 63.6198C111.247 63.001 111.277 62.3352 111.524 61.7363C112.932 58.3136 117.896 46.9298 119.697 52.2498C121.804 58.4479 116.065 65.1349 116.065 65.1349C116.719 70.5617 119.766 74.494 120.964 75.8576C121.267 76.2123 121.453 76.3948 121.453 76.3948Z" fill="#EC8C9C"/>
<path d="M194.885 79.2046C194.885 79.2046 201.326 73.1132 201.082 70.6547C201.082 70.6547 194.992 60.8169 198.039 58.6029C200.449 56.8398 204.108 65.7238 205.527 69.5011C205.714 70.0043 205.789 70.5424 205.747 71.0777C205.705 71.613 205.546 72.1326 205.282 72.6002L197.584 86.2325L194.885 79.2046Z" fill="#EC8C9C"/>
<path d="M153.189 62.2218C153.189 62.2218 154.359 69.718 150.965 72.5313C147.57 75.3445 160.687 75.3273 160.687 75.3273L165.373 70.9921C165.373 70.9921 159.985 65.9544 161.624 62.208L153.189 62.2218Z" fill="#EC8C9C"/>
<path opacity="0.1" d="M152.955 70.7717C152.955 70.7717 157.992 74.5216 163.025 70.3034L171.222 87.2896L170.754 108.022C170.754 108.022 153.771 116.806 146.744 111.421C139.717 106.035 145.573 103.222 145.573 103.222L143.934 87.2931L145.69 76.9836C145.69 76.9836 148.851 72.063 149.088 72.063C149.326 72.063 152.955 70.7717 152.955 70.7717Z" fill="black"/>
<path d="M152.955 70.5376C152.955 70.5376 157.991 74.2943 163.028 70.0693L171.226 87.0555L170.757 107.788C170.757 107.788 153.774 116.572 146.747 111.187C139.72 105.801 145.577 102.988 145.577 102.988L143.938 87.0589L145.694 76.7494C145.694 76.7494 148.854 71.8288 149.092 71.8288C149.329 71.8288 152.955 70.5376 152.955 70.5376Z" fill="#EBF1F6"/>
<path opacity="0.1" d="M152.955 68.7849C152.955 68.7849 148.179 71.5052 142.995 71.3709C142.508 71.3557 142.024 71.4373 141.569 71.6111C141.115 71.7849 140.699 72.0474 140.347 72.3832C138.87 73.8019 136.284 76.047 134.684 76.047C134.339 76.047 124.376 78.0373 124.376 78.0373L121.742 75.4031C121.742 75.4031 117.817 83.0749 115.944 82.7237L119.342 87.176C119.342 87.176 125.784 89.9858 134.215 86.5906H139.135L141.71 94.5552C141.71 94.5552 140.423 105.333 139.369 107.674C138.316 110.016 139.713 114.585 139.713 114.585L148.964 114.241C148.964 114.241 149.433 109.672 150.135 109.076C150.837 108.48 147.677 88.3433 147.677 88.3433C147.677 88.3433 145.57 76.9802 153.299 72.8825L152.955 68.7849Z" fill="black"/>
<path opacity="0.1" d="M149.467 110.236C149.126 111.626 148.884 113.038 148.741 114.461L141.659 114.73C142.605 112.743 143.239 111.531 143.239 111.531L149.467 110.236Z" fill="black"/>
<path opacity="0.1" d="M121.453 76.3947L117.352 82.9372L117.008 81.7733C118.512 80.2789 120.275 77.1557 120.978 75.8541C121.267 76.2122 121.453 76.3947 121.453 76.3947Z" fill="black"/>
<path d="M152.955 68.7849C152.955 68.7849 147.942 71.5052 142.76 71.3709C142.274 71.3557 141.789 71.4373 141.335 71.6111C140.88 71.7849 140.465 72.0474 140.113 72.3832C138.636 73.8019 136.05 76.047 134.449 76.047C134.105 76.047 124.142 78.0373 124.142 78.0373L121.497 75.3996C121.497 75.3996 117.573 83.0715 115.7 82.7203L119.098 87.1725C119.098 87.1725 125.539 89.9824 133.971 86.5872H138.891L141.466 94.5483C141.466 94.5483 140.178 105.326 139.125 107.668C138.071 110.009 139.469 114.578 139.469 114.578L148.72 114.234C148.72 114.234 149.188 109.665 149.89 109.069C150.593 108.473 147.432 88.3364 147.432 88.3364C147.432 88.3364 145.325 76.9733 153.054 72.8756L152.955 68.7849Z" fill="#CED2DF"/>
<path opacity="0.1" d="M163.028 68.0756C163.028 68.0756 167.807 71.7187 174.187 72.1387C174.885 72.1825 175.552 72.4411 176.097 72.8791C177.706 74.2442 179.07 75.8747 180.129 77.6998C182.704 81.9179 189.029 81.4496 189.029 81.4496C189.029 81.4496 195.178 79.5179 195.529 78.0063C195.529 78.0063 195.704 86.2704 199.571 84.2732L194.485 90.1338C194.165 90.5041 193.772 90.8047 193.331 91.0173C192.89 91.2299 192.41 91.3499 191.921 91.37C190.01 91.4458 186.691 91.4699 183.888 90.9258C179.671 90.1063 176.628 88.116 174.403 89.8721C174.403 89.8721 171.477 99.0074 173.467 102.289C175.457 105.571 178.976 111.073 177.333 112.481C175.691 113.89 173.701 113.769 170.424 110.374C167.146 106.979 166.791 101.239 166.791 101.239L167.611 86.4804C167.611 86.4804 164.45 75.3514 161.414 73.127L163.028 68.0756Z" fill="black"/>
<path opacity="0.1" d="M200.035 84.1252L194.936 90.0099C194.598 90.4003 194.178 90.7127 193.707 90.9258C193.289 91.1148 192.837 91.2212 192.378 91.2392C190.468 91.3184 187.149 91.3425 184.346 90.795C180.401 90.0271 177.481 88.2366 175.299 89.4452C175.144 89.5304 174.996 89.6283 174.858 89.7379C174.858 89.7379 171.931 98.8732 173.921 102.155C175.911 105.436 179.43 110.939 177.788 112.347C177.513 112.589 177.204 112.79 176.872 112.943C175.398 113.607 173.57 113.032 170.878 110.24C167.6 106.841 167.246 101.104 167.246 101.104L168.065 86.3462C168.065 86.3462 164.905 75.2172 161.868 72.9927L163.207 68.1892C164.13 68.8159 168.736 71.76 174.431 72.1353C175.129 72.1791 175.796 72.4377 176.342 72.8757C177.95 74.241 179.314 75.8714 180.373 77.6964C182.948 81.9145 189.273 81.4462 189.273 81.4462C190.789 80.9625 192.27 80.3733 193.704 79.6832C194.602 79.2425 195.394 78.7604 195.77 78.3059C195.875 78.1871 195.951 78.0458 195.993 77.8927C195.993 77.8927 196.172 86.1154 200.035 84.1252Z" fill="black"/>
<path d="M199.801 84.2422L194.706 90.1338C194.426 90.4572 194.09 90.7277 193.714 90.9327C193.233 91.1941 192.698 91.3413 192.151 91.3631C190.24 91.4423 186.922 91.4664 184.119 90.9189C180.315 90.1786 177.461 88.4845 175.309 89.4521C175.063 89.5591 174.832 89.6968 174.62 89.8618C174.62 89.8618 171.694 98.9971 173.684 102.279C175.674 105.56 179.192 111.063 177.55 112.471C177.338 112.654 177.107 112.814 176.862 112.95C175.347 113.786 173.474 113.294 170.634 110.364C167.356 106.965 167.001 101.228 167.001 101.228L167.821 86.4701C167.821 86.4701 164.66 75.3411 161.624 73.1167L163.028 68.079L163.197 68.1961C164.12 68.8228 168.726 71.7669 174.421 72.1422C175.119 72.186 175.786 72.4446 176.331 72.8825C177.94 74.2479 179.304 75.8783 180.363 77.7032C182.938 81.9214 189.263 81.4531 189.263 81.4531C190.779 80.9693 192.26 80.3802 193.694 79.6901C194.757 79.146 195.625 78.5503 195.759 78.0063C195.759 78.0063 195.759 78.113 195.759 78.3024C195.863 79.7245 196.379 86.0018 199.801 84.2422Z" fill="#CED2DF"/>
<path opacity="0.1" d="M161.727 62.3975H153.12C153.309 63.7662 153.363 65.1502 153.282 66.5295C154.596 67.4542 156.136 68.0037 157.739 68.119C159.341 68.2342 160.945 67.9109 162.378 67.1838C161.551 65.6549 161.049 63.9194 161.727 62.3975Z" fill="black"/>
<path d="M158.343 67.9585C163.064 67.9585 166.891 64.1306 166.891 59.4086C166.891 54.6866 163.064 50.8587 158.343 50.8587C153.621 50.8587 149.794 54.6866 149.794 59.4086C149.794 64.1306 153.621 67.9585 158.343 67.9585Z" fill="#EC8C9C"/>
<path opacity="0.1" d="M156.566 57.8866C157.52 57.773 158.473 57.4355 159.413 57.6249C160.267 57.7971 160.994 58.3859 161.847 58.565C163.493 58.9093 165.022 57.6972 166.265 56.5678L168.95 54.123C169.546 53.5824 170.158 53.0142 170.465 52.2705C170.771 51.5267 170.664 50.5488 170.01 50.0805C169.029 49.3918 167.339 50.0805 166.629 49.1026C166.309 48.6618 166.357 48.0695 166.192 47.5427C165.848 46.489 164.664 45.914 163.555 45.9002C162.446 45.8864 161.386 46.2928 160.326 46.5889C158.092 47.237 155.756 47.4601 153.44 47.2466C152.815 47.1321 152.172 47.1544 151.557 47.312C151.178 47.4738 150.842 47.7223 150.577 48.0374C150.311 48.3526 150.123 48.7257 150.028 49.1267C149.498 50.9999 150.403 54.0197 151.312 55.6966C152.221 57.3736 154.752 58.1104 156.566 57.8866Z" fill="black"/>
<path d="M156.566 57.6525C157.52 57.5388 158.473 57.2014 159.413 57.3908C160.267 57.5629 160.994 58.1517 161.847 58.3308C163.493 58.6751 165.022 57.4631 166.265 56.3336L168.95 53.8888C169.546 53.3482 170.158 52.7801 170.465 52.0363C170.771 51.2925 170.664 50.3146 170.01 49.8463C169.029 49.1576 167.339 49.8463 166.629 48.8684C166.309 48.4276 166.357 47.8354 166.192 47.3085C165.848 46.2549 164.664 45.6798 163.555 45.6661C162.446 45.6523 161.386 46.0586 160.326 46.3547C158.092 47.0028 155.756 47.2259 153.44 47.0124C152.815 46.8979 152.172 46.9203 151.557 47.0778C151.178 47.2396 150.842 47.4881 150.577 47.8033C150.311 48.1184 150.123 48.4915 150.028 48.8925C149.498 50.7657 150.403 53.7855 151.312 55.4625C152.221 57.1394 154.752 57.8591 156.566 57.6525Z" fill="#88455E"/>
<path opacity="0.1" d="M141.655 94.6103C141.655 94.6103 143.528 94.8444 144.465 96.0152C145.401 97.1859 147.04 97.5371 147.04 97.5371" fill="black"/>
<path opacity="0.1" d="M124.789 79.146C124.789 79.146 126.317 82.5584 125.374 82.9028C124.431 83.2471 124.789 85.7125 124.789 85.7125" fill="black"/>
<g opacity="0.1">
<path opacity="0.1" d="M125.315 77.9753C125.315 77.9753 135.269 75.9851 135.613 75.9851C137.217 75.9851 139.799 73.74 141.276 72.3213C141.726 71.8909 142.278 71.5837 142.881 71.4295H142.753C142.267 71.4142 141.782 71.4959 141.328 71.6697C140.873 71.8435 140.458 72.106 140.106 72.4418C138.629 73.8605 136.043 76.1056 134.442 76.1056C134.164 76.1056 127.794 77.3693 125.209 77.8824L125.315 77.9753Z" fill="black"/>
<path opacity="0.1" d="M152.968 69.2773V68.84C150.574 70.0611 147.997 70.8856 145.339 71.2814C147.977 71.0466 150.556 70.3691 152.968 69.2773Z" fill="black"/>
<path opacity="0.1" d="M140.66 114.52C140.66 114.52 139.255 109.95 140.316 107.609C141.376 105.268 142.657 94.4897 142.657 94.4897L140.089 86.5252H135.155L134.855 86.6423H138.901L141.466 94.6103C141.466 94.6103 140.178 105.388 139.125 107.73C138.071 110.071 139.469 114.64 139.469 114.64L148.72 114.296V114.224L140.66 114.52Z" fill="black"/>
</g>
<g opacity="0.1">
<path opacity="0.1" d="M177.667 110.598C177.455 110.781 177.224 110.941 176.979 111.076C175.464 111.913 173.591 111.421 170.751 108.491C168.148 105.794 167.39 101.604 167.187 100.016L167.118 101.228C167.118 101.228 167.463 106.969 170.751 110.364C173.591 113.304 175.464 113.786 176.979 112.95C177.224 112.814 177.455 112.654 177.667 112.471C178.16 112.048 178.187 111.252 177.929 110.26C177.865 110.389 177.776 110.504 177.667 110.598Z" fill="black"/>
<path opacity="0.1" d="M198.145 84.4179L194.83 88.2503C194.55 88.5737 194.214 88.8442 193.838 89.0492C193.357 89.3106 192.822 89.4578 192.275 89.4796C190.364 89.5588 187.046 89.5829 184.243 89.0354C180.439 88.2951 177.585 86.601 175.433 87.5686C175.187 87.6756 174.956 87.8133 174.744 87.9783C174.744 87.9783 172.854 93.8803 173.143 97.8987C173.367 94.142 174.744 89.8515 174.744 89.8515C174.956 89.6865 175.187 89.5488 175.433 89.4418C177.588 88.4742 180.439 90.1683 184.243 90.9086C187.046 91.4527 190.361 91.4286 192.275 91.3528C192.822 91.331 193.357 91.1837 193.838 90.9224C194.213 90.7205 194.549 90.4535 194.83 90.1339L199.929 84.2491C199.665 84.4135 199.366 84.5142 199.057 84.5435C198.747 84.5728 198.435 84.5298 198.145 84.4179Z" fill="black"/>
</g>
<path d="M48.4199 126.596C48.4608 126.635 48.5133 126.661 48.5697 126.668C48.6262 126.676 48.6835 126.665 48.7332 126.637C48.6273 126.639 48.5217 126.625 48.4199 126.596Z" fill="url(#paint0_linear)"/>
<path d="M83.5058 69.5562C82.8861 69.3772 82.0013 69.0845 80.9375 68.7126C82.043 67.2901 82.8519 65.6602 83.3165 63.9194L83.2269 63.9538C83.2579 63.8471 83.2889 63.7438 83.3165 63.6336C81.2748 64.4635 79.0163 63.0586 77.5772 61.2542C76.1381 59.4499 75.1673 57.2117 73.5905 55.552C72.9333 54.8917 72.2266 54.2828 71.4766 53.7305C71.0118 53.3861 70.5126 52.997 69.9445 52.9798C69.0253 52.9523 68.3057 53.8544 67.4209 54.1196C66.8387 54.2506 66.2325 54.2281 65.6616 54.0541C63.379 53.5307 61.1859 52.5631 58.8551 52.3083C57.6081 52.1543 56.3424 52.2971 55.161 52.725C53.9904 53.1692 53.4568 54.0541 52.51 54.7635C51.4772 55.5245 49.4597 55.5072 48.2581 55.6415C46.8001 55.8081 45.3319 55.8691 43.8651 55.824C43.0221 55.7509 42.1733 55.7822 41.338 55.917C39.5925 56.2992 38.1913 57.6869 36.883 59.016C36.5259 59.3167 36.2689 59.7191 36.1462 60.1696C36.1295 60.2964 36.1295 60.4249 36.1462 60.5518C36.1331 60.8989 36.1929 61.245 36.3218 61.5676C36.7246 62.7628 37.2936 63.8953 38.0123 64.9318C38.5459 65.6962 39.169 66.4159 39.472 67.3215C39.6156 67.7667 39.6911 68.231 39.6958 68.6988C39.6809 69.1955 39.6292 69.6904 39.5409 70.1795C39.3099 71.5315 38.93 72.8537 38.4082 74.1221C38.0842 74.7733 37.8613 75.4699 37.7472 76.1882C37.7373 76.3349 37.7373 76.4822 37.7472 76.6289C37.6611 78.9015 39.954 80.5372 40.3981 82.796C40.4346 82.9834 40.4565 83.1734 40.4636 83.3642C40.4154 84.7725 39.6132 86.1499 38.4288 86.6974C38.5321 86.7387 38.6388 86.7731 38.7456 86.8075C38.6437 86.8715 38.5379 86.929 38.4288 86.9797C38.6457 87.0624 38.8661 87.1347 39.0899 87.1932C37.7439 88.3657 36.6126 89.764 35.7469 91.3253C31.7635 98.7423 4.78551 113.27 4.78551 113.27L5.18488 113.497L4.86125 113.707C2.52701 115.26 -2.95053 119.788 2.00026 125.515C2.00026 125.515 5.86655 119.413 8.57606 116.813C8.69656 116.696 8.81706 116.589 8.92034 116.489C8.97987 116.581 9.01978 116.684 9.03756 116.792C9.05533 116.9 9.05059 117.01 9.02363 117.116L26.7611 107.148C26.7611 107.148 33.0649 102.733 34.8242 101.738C36.0625 100.966 37.41 100.386 38.8213 100.016L38.6147 100.102C39.278 99.92 39.9617 99.8228 40.6495 99.8132C43.7893 99.8614 47.1908 102.162 48.3098 111.269C49.8108 123.466 49.1154 125.666 48.6334 125.966C48.574 125.961 48.5151 125.951 48.4578 125.935C48.4727 125.948 48.4888 125.959 48.506 125.969C48.4407 125.964 48.3761 125.953 48.3132 125.935C48.3479 125.966 48.3901 125.989 48.4359 126C48.4818 126.011 48.5296 126.01 48.5749 125.997C48.6074 126.007 48.6417 126.009 48.6755 126.005C48.7093 126.001 48.7419 125.99 48.7711 125.973C48.8502 125.977 48.9295 125.977 49.0087 125.973C49.0087 126.085 49.0006 126.2 48.9846 126.317C48.9605 126.317 48.8434 126.382 48.9846 126.389C48.9467 127.078 48.9501 127.825 48.9846 128.607C47.425 128.693 45.8653 128.786 44.5089 128.868L44.6294 128.225L44.6845 127.935C45.8826 127.839 47.0187 127.488 47.153 126.517C47.4456 124.382 44.5158 123.242 42.0232 123.101C39.5305 122.96 24.5818 123.955 24.5818 123.955C24.5818 123.955 22.3405 126.857 29.4499 127.742C29.6611 127.853 29.8803 127.967 30.1075 128.087C32.8928 129.674 36.6695 132.598 38.4805 134.037L38.7318 134.237L37.9193 134.898C42.3158 135.893 46.5677 152.697 48.9123 160.379C51.2568 168.061 56.3866 167.782 60.6385 166.642C64.6219 165.575 65.1142 154.005 65.1796 152.552V152.404L72.265 161.157L72.802 161.822C73.0086 161.929 73.2129 162.03 73.4149 162.125C78.7788 164.676 84.7039 159.783 83.0204 154.205C81.3162 148.582 78.6721 140.266 76.9093 136.75C75.4324 133.806 73.525 128.917 72.3682 125.855C72.5185 125.795 72.6645 125.725 72.8055 125.645C72.8055 125.645 72.7779 125.508 72.7332 125.256L72.8055 125.218C72.8055 125.218 71.0841 116.362 71.0083 110.068C71.0083 109.957 71.0083 109.843 71.0083 109.723C71.0083 109.654 71.0083 109.585 71.0083 109.52C72.2891 109.227 73.1016 109.114 73.1016 109.114L73.1257 108.838L72.9776 108.869L73.6903 100.712C73.6903 100.712 76.3069 95.144 74.3031 92.8266C73.694 92.1488 73.2872 91.3137 73.1291 90.4162C72.7848 88.2848 73.1291 84.7277 77.7942 81.7733C84.9759 77.2177 87.7784 73.5092 87.7784 73.5092C87.7784 73.5092 87.9023 70.8509 83.5058 69.5562ZM69.2422 75.2171V71.4466C70.5745 71.3812 71.9344 71.5362 73.2737 71.4466C73.9312 71.4007 74.5826 71.2911 75.2189 71.1195L75.5425 71.3433C73.5831 72.8507 71.4715 74.149 69.2422 75.2171ZM48.8778 134.319C49.4046 134.684 49.9348 135.063 50.4546 135.445C50.7783 137.305 51.064 138.617 51.0847 138.71C50.4905 137.179 49.7515 135.709 48.8778 134.319Z" fill="url(#paint1_linear)"/>
<path d="M60.2598 131.22L59.95 132.904L59.7124 134.192L59.2786 136.547L55.0715 139.491C55.0715 139.491 54.6927 139.168 54.0662 138.654C52.3447 137.236 48.7194 134.357 46.0581 132.801C45.3742 132.364 44.6341 132.022 43.8582 131.785L60.2598 131.22Z" fill="#FFBDC6"/>
<path opacity="0.1" d="M60.2598 131.22L59.95 132.904C59.0226 132.956 58.0924 132.908 57.175 132.763L47.3595 132.904C46.8948 132.876 46.461 132.839 46.0547 132.797C45.3708 132.361 44.6307 132.019 43.8547 131.782L60.2598 131.22Z" fill="black"/>
<path d="M57.175 132.487C57.175 132.487 62.0845 133.328 62.3634 131.224C62.6422 129.12 59.8398 128.011 57.4608 127.853C55.0818 127.694 40.7699 128.7 40.7699 128.7C40.7699 128.7 38.2464 132.064 47.3595 132.625L57.175 132.487Z" fill="#7679B4"/>
<path opacity="0.1" d="M60.2598 131.22L59.95 132.904L59.7124 134.192L59.2786 136.547L55.0715 139.491C55.0715 139.491 54.6927 139.168 54.0662 138.654C52.3447 137.236 48.7194 134.357 46.0581 132.801C45.3742 132.364 44.6341 132.022 43.8582 131.785L60.2598 131.22Z" fill="black"/>
<path opacity="0.1" d="M60.2598 131.22L59.95 132.904C59.0226 132.956 58.0924 132.908 57.175 132.763L47.3595 132.904C46.8948 132.876 46.461 132.839 46.0547 132.797C45.3708 132.361 44.6307 132.019 43.8547 131.782L60.2598 131.22Z" fill="black"/>
<path opacity="0.1" d="M57.175 132.487C57.175 132.487 62.0845 133.328 62.3634 131.224C62.6422 129.12 59.8398 128.011 57.4608 127.853C55.0818 127.694 40.7699 128.7 40.7699 128.7C40.7699 128.7 38.2464 132.064 47.3595 132.625L57.175 132.487Z" fill="black"/>
<path d="M67.8995 63.3409H42.2401V93.7735H67.8995V63.3409Z" fill="#A66477"/>
<path opacity="0.1" d="M67.8995 63.3409H42.2401V93.7735H67.8995V63.3409Z" fill="black"/>
<path d="M12.1635 115.443C11.74 115.549 11.2029 115.956 10.6004 116.548C8.00798 119.11 4.31038 125.119 4.31038 125.119C-0.426956 119.478 4.81647 115.019 7.06464 113.487C7.60861 113.115 7.97355 112.915 7.97355 112.915L12.1635 115.443Z" fill="#FFBDC6"/>
<path d="M59.9809 72.948C59.9809 72.948 61.2444 81.7837 65.5893 83.8876C69.9341 85.9915 59.9809 89.9169 59.9809 89.9169L46.3783 84.8689C46.3783 84.8689 54.0902 82.345 52.5478 74.9107L59.9809 72.948Z" fill="#FFBDC6"/>
<path d="M45.4109 126.1L45.1011 127.784L44.8635 129.072L44.4297 131.427L40.2226 134.371C40.2226 134.371 39.8439 134.047 39.2173 133.534C37.4959 132.116 33.8706 129.237 31.2092 127.68C30.5253 127.244 29.7852 126.902 29.0093 126.665L45.4109 126.1Z" fill="#FFBDC6"/>
<path opacity="0.1" d="M45.4108 126.1L45.101 127.784C44.1736 127.835 43.2434 127.788 42.326 127.643L32.5105 127.784C32.0458 127.756 31.612 127.718 31.2057 127.677C30.5218 127.24 29.7817 126.899 29.0057 126.661L45.4108 126.1Z" fill="black"/>
<path d="M42.3123 127.364C42.3123 127.364 47.2217 128.204 47.5006 126.1C47.7795 123.996 44.977 122.874 42.5911 122.736C40.2052 122.598 25.9037 123.576 25.9037 123.576C25.9037 123.576 23.3801 126.94 32.4933 127.501L42.3123 127.364Z" fill="#7679B4"/>
<path opacity="0.1" d="M44.8497 129.075L44.4159 131.43L40.2088 134.374C40.2088 134.374 39.8301 134.051 39.2035 133.538L44.7671 128.975L44.8497 129.075Z" fill="black"/>
<path d="M72.6092 161.181C72.4164 161.087 72.2213 160.987 72.0239 160.882L71.5109 160.227L64.7354 151.619V151.77C64.6907 153.199 64.2018 164.597 60.394 165.647C56.328 166.77 51.4186 167.049 49.1773 159.477C46.936 151.905 42.8666 135.356 38.6594 134.374L44.8978 129.254C44.8978 129.254 49.0292 134.075 50.7162 138.717C50.6542 138.42 47.8001 125.091 50.155 122.736H70.6261C70.6261 122.736 73.7797 131.737 75.9556 136.199C77.6426 139.663 80.1731 147.852 81.8084 153.392C83.4265 158.874 77.7734 163.695 72.6092 161.181Z" fill="#7679B4"/>
<path opacity="0.1" d="M72.0378 125.256C68.8807 127.126 54.9992 126.365 50.4754 126.062L49.2463 125.973C49.112 125.973 49.2669 125.897 49.2669 125.897L49.3943 124.623L52.758 116.069L70.7777 105.629C70.4128 106.727 70.2889 108.411 70.3198 110.343C70.4094 116.534 72.0378 125.256 72.0378 125.256Z" fill="black"/>
<path d="M72.0378 124.84C68.8807 126.709 54.9992 125.948 50.4753 125.645L49.2462 125.556H49.0431L49.2669 125.497L50.3755 125.205L52.7579 115.667L70.7777 105.219C70.4127 106.318 70.2888 108.002 70.3198 109.933C70.4093 116.114 72.0378 124.84 72.0378 124.84Z" fill="#F2F1F2"/>
<path opacity="0.1" d="M70.3199 109.92C66.6567 110.763 58.5936 113.246 55.4951 119.217C53.4294 123.204 51.7079 124.915 50.4788 125.632L49.2498 125.542L49.2704 125.466L50.379 125.174L52.7614 115.636L70.7812 105.188C70.4094 106.318 70.2889 107.988 70.3199 109.92Z" fill="black"/>
<path opacity="0.1" d="M7.95639 112.919L12.1635 115.443C11.7401 115.549 11.203 115.956 10.6005 116.548C10.2562 115.515 8.04591 114.096 7.04749 113.49C7.59145 113.118 7.95639 112.919 7.95639 112.919Z" fill="black"/>
<path opacity="0.1" d="M48.5093 125.718C48.4624 125.744 48.4084 125.754 48.3551 125.748C48.3018 125.741 48.2521 125.717 48.2133 125.68C48.3095 125.707 48.4093 125.72 48.5093 125.718Z" fill="black"/>
<path d="M58.0151 83.3263C58.0151 83.3263 54.228 83.7464 51.5632 80.9435C51.5632 80.9435 40.3465 84.1699 36.5594 91.463C32.7722 98.7561 6.97168 113.06 6.97168 113.06C6.97168 113.06 11.4474 115.584 11.0377 116.848L28.0039 107.031C28.0039 107.031 34.0323 102.682 35.7159 101.7C37.3994 100.719 46.6537 94.6894 48.6161 111.097C50.5786 127.505 48.6161 125.559 48.6161 125.559C48.6161 125.559 51.4221 126.541 55.5018 118.673C59.5816 110.804 72.1892 108.997 72.1892 108.997L72.8778 100.733C72.8778 100.733 75.3807 95.2507 73.4631 92.9643C72.8783 92.2915 72.4899 91.4707 72.3407 90.5918C72.0205 88.4914 72.3407 84.9894 76.8164 82.0798C83.702 77.6034 86.353 73.9465 86.353 73.9465C86.353 73.9465 86.4942 71.2814 82.287 70.0211C78.0799 68.7608 60.9725 61.8878 60.9725 61.8878L60.4113 64.2706L73.8728 73.8088C73.8728 73.8088 67.142 79.2769 61.8229 79.1391C61.8022 79.115 62.7834 83.1851 58.0151 83.3263Z" fill="#565388"/>
<path opacity="0.1" d="M60.6145 76.7942C60.2829 75.6642 60.0242 74.514 59.8398 73.3508L52.4067 75.3273C52.7321 76.746 52.6739 78.2257 52.238 79.6143C53.7571 80.0197 55.362 79.968 56.8519 79.4658C58.3418 78.9636 59.6506 78.0331 60.6145 76.7908V76.7942Z" fill="black"/>
<path d="M54.4414 79.4697C58.8565 79.4697 62.4357 75.89 62.4357 71.4742C62.4357 67.0584 58.8565 63.4787 54.4414 63.4787C50.0263 63.4787 46.4471 67.0584 46.4471 71.4742C46.4471 75.89 50.0263 79.4697 54.4414 79.4697Z" fill="#FFBDC6"/>
<path opacity="0.1" d="M58.6899 53.2897C60.9071 53.5411 63.0176 54.4949 65.2003 55.0114C65.7457 55.1825 66.3268 55.205 66.8838 55.0768C67.7308 54.8151 68.4193 53.9267 69.2938 53.9543C69.8344 53.9543 70.3267 54.3399 70.7605 54.6946C71.4791 55.2399 72.1547 55.8397 72.7814 56.4886C74.2859 58.1242 75.2224 60.328 76.5961 62.1047C77.9698 63.8815 80.1353 65.2658 82.0874 64.4497C80.7619 69.6147 76.4102 73.5643 71.7073 73.8845C69.8309 74.0119 67.9201 73.6228 66.092 74.1738C65.6389 74.3585 65.1609 74.4746 64.6736 74.5181C63.6407 74.5181 62.7869 73.5574 62.1327 72.6243C60.6041 70.4274 59.3785 67.9344 57.6571 65.9338C57.089 65.2727 56.4176 64.6425 55.6155 64.522C54.8133 64.4015 54.0731 64.7837 53.357 65.1556C52.1761 65.7685 50.9676 66.4021 50.0519 67.4489C49.1361 68.4956 48.5577 70.0624 48.9364 71.4811C49.1395 72.2455 49.6077 72.9342 49.6249 73.7365C49.6249 75.0105 48.5163 75.9437 48.2926 77.1798C48.2433 77.7017 48.2249 78.226 48.2375 78.75C48.1376 80.4511 47.029 81.8491 45.8654 82.9131C45.4144 83.3297 44.9117 83.7739 44.7809 84.4178C44.6914 84.8551 44.7809 85.32 44.7223 85.7642C44.5536 86.8695 43.4519 87.4273 42.4776 87.572C41.3397 87.7388 40.1779 87.6009 39.1105 87.1725C40.4877 86.5286 41.3105 84.6933 40.9938 83.0405C40.56 80.7644 38.2739 79.1322 38.4667 76.8114C38.5745 76.1007 38.7881 75.4101 39.1002 74.7626C39.5991 73.5105 39.9615 72.2083 40.1813 70.8785C40.4065 69.855 40.3841 68.7925 40.1158 67.7794C39.8232 66.8876 39.2276 66.1783 38.7181 65.4242C38.028 64.399 37.4834 63.283 37.0999 62.1082C36.9609 61.761 36.9078 61.3853 36.945 61.0132C37.056 60.5742 37.2958 60.1785 37.6336 59.8769C38.8868 58.565 40.2295 57.1979 41.8958 56.8192C42.692 56.6865 43.5017 56.6553 44.3058 56.7262C45.7095 56.7709 47.1146 56.711 48.5095 56.5471C49.6594 56.4128 51.608 56.4301 52.5789 55.6794C53.4844 54.9907 53.9973 54.1127 55.1163 53.6719C56.2582 53.2538 57.4854 53.1225 58.6899 53.2897Z" fill="black"/>
<path opacity="0.1" d="M63.1345 135.848C63.1345 135.848 67.7617 144.963 66.3604 147.769L63.1345 135.848Z" fill="black"/>
<path opacity="0.1" d="M71.5247 160.227L64.7492 151.619V151.77C64.7492 151.77 64.3567 148.988 65.6478 149.925C68.4744 151.97 72.9983 155.324 73.0947 155.902C73.1911 156.481 72.1789 158.802 71.5247 160.227Z" fill="black"/>
<g opacity="0.1">
<path opacity="0.1" d="M61.9365 79.1151C61.9365 79.1151 62.508 81.4841 60.6592 82.6686C63.5064 82.1797 63.6303 79.9656 63.5443 79.0014C63.0128 79.0875 62.4747 79.1255 61.9365 79.1151Z" fill="black"/>
<path opacity="0.1" d="M8.65863 112.499C8.65863 112.499 34.4592 98.1948 38.2463 90.9017C40.9627 85.6678 47.5075 82.5309 50.9848 81.1742C48.4474 82.0247 39.9092 85.2856 36.7005 91.463C32.9134 98.7561 7.11279 113.06 7.11279 113.06L8.65863 112.499Z" fill="black"/>
<path opacity="0.1" d="M66.956 78.0028C71.3456 76.6255 75.5424 73.2269 75.5424 73.2269L62.081 63.6887L62.3874 62.3802L61.0998 61.8637L60.5386 64.2466L74.0001 73.7847C71.8399 75.4831 69.4729 76.9004 66.956 78.0028Z" fill="black"/>
<path opacity="0.1" d="M67.0421 110.322C68.7622 109.735 70.5273 109.289 72.32 108.99L72.3441 108.718C70.5379 109.115 68.7652 109.651 67.0421 110.322Z" fill="black"/>
<path opacity="0.1" d="M50.7266 125.015H50.6026C50.5557 125.041 50.5016 125.052 50.4483 125.045C50.3951 125.038 50.3454 125.015 50.3065 124.977C50.4029 125.004 50.5026 125.017 50.6026 125.015C51.064 124.747 51.756 122.653 50.3065 110.532C48.7573 97.5922 42.6772 98.608 39.348 100.096C42.7495 99.159 47.4318 99.9682 48.7642 111.094C50.2136 123.214 49.5216 125.311 49.0602 125.577C49.6582 125.554 50.237 125.359 50.7266 125.015Z" fill="black"/>
<path opacity="0.1" d="M49.0603 125.58C48.9602 125.582 48.8605 125.569 48.7642 125.542C48.803 125.579 48.8527 125.603 48.906 125.61C48.9593 125.617 49.0133 125.606 49.0603 125.58Z" fill="black"/>
</g>
<path d="M58.6899 53.0177C60.9071 53.2691 63.0176 54.2229 65.2003 54.7394C65.7457 54.9105 66.3268 54.933 66.8838 54.8048C67.7308 54.5431 68.4193 53.6547 69.2938 53.6823C69.8344 53.6823 70.3267 54.0679 70.7605 54.4226C71.4791 54.9679 72.1547 55.5677 72.7814 56.2166C74.2859 57.8522 75.2224 60.056 76.5961 61.8327C77.9698 63.6095 80.1353 64.9938 82.0874 64.1777C80.7619 69.3427 76.4102 73.2923 71.7073 73.6125C69.8309 73.7399 67.9201 73.3508 66.092 73.9018C65.6389 74.0865 65.1609 74.2026 64.6736 74.2461C63.6407 74.2461 62.7869 73.2854 62.1327 72.3523C60.6041 70.1554 59.3785 67.6624 57.6571 65.6618C57.089 65.0006 56.4176 64.3705 55.6155 64.25C54.8133 64.1295 54.0731 64.5117 53.357 64.8836C52.1761 65.4965 50.9676 66.1301 50.0519 67.1769C49.1361 68.2236 48.5577 69.7904 48.9364 71.2091C49.1395 71.9735 49.6077 72.6622 49.6249 73.4645C49.6249 74.7385 48.5163 75.6717 48.2926 76.9078C48.2433 77.4297 48.2249 77.954 48.2375 78.478C48.1376 80.1791 47.029 81.5771 45.8654 82.6411C45.4144 83.0577 44.9117 83.5019 44.7809 84.1458C44.6914 84.5831 44.7809 85.048 44.7223 85.4922C44.5536 86.5975 43.4519 87.1553 42.4776 87.3C41.3397 87.4668 40.1779 87.3289 39.1105 86.9005C40.4877 86.2566 41.3105 84.4213 40.9938 82.7685C40.56 80.4924 38.2739 78.8602 38.4667 76.5394C38.5745 75.8287 38.7881 75.1381 39.1002 74.4906C39.5991 73.2385 39.9615 71.9363 40.1813 70.6065C40.4065 69.583 40.3841 68.5205 40.1158 67.5074C39.8232 66.6156 39.2276 65.9063 38.7181 65.1522C38.028 64.127 37.4834 63.011 37.0999 61.8362C36.9609 61.489 36.9078 61.1133 36.945 60.7412C37.056 60.3022 37.2958 59.9064 37.6336 59.6049C38.8868 58.2929 40.2295 56.9259 41.8958 56.5472C42.692 56.4145 43.5017 56.3833 44.3058 56.4542C45.7095 56.4989 47.1146 56.439 48.5095 56.2751C49.6594 56.1408 51.608 56.1581 52.5789 55.4074C53.4844 54.7187 53.9973 53.8407 55.1163 53.3999C56.2582 52.9818 57.4854 52.8505 58.6899 53.0177Z" fill="#A66477"/>
<path d="M286.96 35.0708C286.96 35.026 286.96 34.9847 286.96 34.9434C286.96 34.9021 286.96 34.8539 286.939 34.8125H286.884C286.884 34.7196 286.884 34.6266 286.884 34.5267C286.746 31.3347 282.333 24.5409 280.563 26.5243C279.014 28.2667 281.352 32.6742 282.543 34.6576L282.649 34.8366L282.591 34.7988C282.591 34.7988 277.664 49.4951 277.082 50.0667C276.501 50.6383 272.445 62.1943 267.098 63.4959C266.041 63.7472 265.163 63.9745 264.427 64.1846L264.485 63.9883C264.829 62.8623 265.253 61.7983 265.425 60.5449C265.597 59.2915 265.425 57.773 264.791 57.1635C264.482 56.8605 264.103 56.8192 263.848 56.3371C263.683 55.9143 263.594 55.4653 263.586 55.0114L263.132 49.44L263.449 49.3436C265.363 48.7307 267.219 47.2776 267.436 45.3217C267.369 45.347 267.301 45.3689 267.232 45.3872C267.258 45.2734 267.277 45.1585 267.291 45.0428C265.683 45.6764 264.192 44.0098 262.643 43.2626C260.092 42.0126 257.176 43.1903 254.542 43.4761C251.557 43.8032 248.724 42.5636 245.673 42.7874C244.014 42.9148 242.169 44.0408 242.258 45.6764C242.31 46.5751 242.947 47.3361 243.208 48.1969C243.869 50.2802 242.399 52.3703 241.112 54.1471C240.265 55.3144 239.452 56.7365 239.308 58.107C236.343 55.0079 233.138 51.4268 232.766 50.0805L224.19 35.3841C224.19 35.3841 223.987 35.6011 223.66 35.9213C223.608 35.7629 223.546 35.577 223.477 35.391C222.383 32.323 219.284 24.8887 215.356 26.2523C211.428 27.6159 216.984 35.2361 219.401 38.2731L219.745 38.6932C219.543 38.743 219.33 38.7335 219.133 38.6657L228.697 55.0734C228.697 55.0734 230.435 58.2137 232.029 59.0677C232.029 59.0677 243.911 74.0498 244.055 77.0456C244.2 80.0413 249.399 88.0334 249.399 88.0334C249.399 88.0334 251.137 101.018 248.094 103.301H248.132H248.156H248.194H248.228H248.297H248.342H248.386H248.445H248.493H248.562H248.596C248.452 103.443 248.304 103.597 248.152 103.766C245.897 106.266 243.016 111.624 246.954 120.735C252.748 134.164 253.619 139.426 253.619 139.426C253.619 139.426 242.602 139.997 240.433 140.424C238.512 140.803 231.045 141.068 229.337 141.113C228.728 140.404 226.927 138.834 224.497 141.113C221.453 143.968 219.281 153.509 219.281 153.509C219.281 153.509 218.12 161.215 222.035 159.215C222.035 159.215 226.672 152.793 227.974 152.507C228.621 152.366 229.306 151.412 229.829 150.493L229.857 150.51C229.888 150.51 230.015 150.441 230.222 150.359C231.186 149.976 233.84 149.057 235.934 149.515C237.08 149.766 241.996 149.825 247.15 149.811C245.987 152.6 243.9 159.797 243.9 159.797C243.9 159.797 243.029 166.508 245.921 166.232C247.987 166.029 251.154 160.751 252.807 157.738C254.005 156.86 257.438 153.712 259.975 153.95L277.072 147.387C277.072 147.387 281.128 145.104 278.955 137.542C277.234 131.53 272.335 119.224 270.4 114.427L270.341 114.303C269.873 113.143 269.591 112.454 269.591 112.454C268.796 110.264 268.274 107.985 268.038 105.667C268.021 105.484 268.007 105.298 267.993 105.116C268.233 105.015 268.458 104.885 268.665 104.727C268.665 104.727 267.071 88.605 268.665 86.8902L268.692 86.8592V86.8385L268.72 86.8041L268.782 86.7249L268.857 86.6285C268.944 86.5149 269.047 86.3737 269.164 86.2015C270.076 84.8655 271.777 81.8147 271.288 78.2129C271.267 78.0568 271.242 77.8995 271.212 77.7411C271.025 76.7644 270.691 75.8216 270.221 74.9451C270.152 74.5802 270.109 74.2108 270.093 73.8398C270.093 73.6297 270.093 73.399 270.093 73.1511V73.1098C270.093 73.0432 270.093 72.9767 270.093 72.9101V72.8619C270.093 72.7 270.121 72.5175 270.145 72.366V72.304C270.145 72.2421 270.155 72.1789 270.176 72.1147V72.0355C270.176 71.9735 270.204 71.9115 270.217 71.8495V71.7841C270.238 71.7015 270.259 71.6188 270.286 71.5362V71.4948C270.307 71.426 270.33 71.3583 270.355 71.2917L270.386 71.2125L270.455 71.0472L270.489 70.9646C270.517 70.9026 270.548 70.8406 270.579 70.7786L270.603 70.727C270.644 70.6512 270.688 70.5766 270.734 70.5032L270.772 70.4446L270.885 70.2828L270.94 70.2105L271.061 70.0658L271.116 70.0039C271.178 69.9384 271.24 69.873 271.309 69.811C273.192 68.0893 281.596 55.4005 281.596 55.4005C281.596 55.4005 283.624 52.5459 283.624 50.6934C283.737 50.6521 287.321 38.7036 286.96 35.0708ZM264.399 141.729C264.192 139.774 263.986 137.349 263.796 134.843L267.074 139.953C267.074 139.953 266.764 141.509 264.399 141.729Z" fill="url(#paint2_linear)"/>
<path d="M230.225 140.648C230.225 140.648 228.263 137.549 225.316 140.369C222.369 143.189 220.269 152.569 220.269 152.569C220.269 152.569 219.146 160.145 222.933 158.178C222.933 158.178 227.409 151.867 228.683 151.588C229.957 151.309 231.348 147.8 231.348 147.8L230.225 140.648Z" fill="#493545"/>
<path d="M251.258 148.22C251.258 148.22 248.593 146.956 247.753 147.941C246.913 148.926 244.107 158.74 244.107 158.74C244.107 158.74 243.267 165.193 246.069 164.91C248.872 164.628 253.781 154.525 253.781 154.525L251.258 148.22Z" fill="#493545"/>
<path opacity="0.05" d="M251.258 148.22C251.258 148.22 248.593 146.956 247.753 147.941C246.913 148.926 244.107 158.74 244.107 158.74C244.107 158.74 243.267 165.193 246.069 164.91C248.872 164.628 253.781 154.525 253.781 154.525L251.258 148.22Z" fill="black"/>
<path d="M260.512 129.147L266.54 138.544C266.54 138.544 266.12 140.648 262.474 140.228L249.994 148.082C249.994 148.082 248.91 157.645 252.377 156.777C252.938 156.636 256.852 152.569 259.668 152.852L276.218 146.399C276.218 146.399 280.143 144.154 278.039 136.723C275.936 129.292 268.981 112.061 268.981 112.061L257.988 118.211L260.512 129.147Z" fill="#3E3D77"/>
<path opacity="0.05" d="M260.512 129.147L266.54 138.544C266.54 138.544 266.12 140.648 262.474 140.228L249.994 148.082C249.994 148.082 248.91 157.645 252.377 156.777C252.938 156.636 256.852 152.569 259.668 152.852L276.218 146.399C276.218 146.399 280.143 144.154 278.039 136.723C275.936 129.292 268.981 112.061 268.981 112.061L257.988 118.211L260.512 129.147Z" fill="black"/>
<path d="M264.299 143.031C265.139 148.361 260.374 148.782 260.374 148.782C260.374 148.782 238.919 149.202 236.395 148.64C233.871 148.079 230.504 149.622 230.504 149.622C226.156 146.957 229.664 140.366 229.664 140.366C229.664 140.366 238.64 140.087 240.743 139.677C242.847 139.267 253.502 138.686 253.502 138.686C253.502 138.686 252.662 133.496 247.051 120.315C243.239 111.362 246.018 106.094 248.211 103.639C248.77 102.987 249.418 102.417 250.135 101.945L267.384 102.785C267.365 103.655 267.398 104.525 267.48 105.391C267.775 108.366 268.548 111.272 269.77 114C268.789 114 262.478 119.892 262.478 119.892C262.478 119.892 263.456 137.704 264.299 143.031Z" fill="#3E3D77"/>
<path opacity="0.1" d="M230.924 140.927C230.924 140.927 239.9 140.648 242.003 140.238C244.107 139.829 254.763 139.257 254.763 139.257C254.763 139.257 253.923 134.068 248.311 120.887C244.5 111.934 247.278 106.666 249.471 104.21C250.031 103.559 250.678 102.989 251.395 102.516L267.377 103.294C267.377 103.129 267.377 102.95 267.377 102.795L250.129 101.955C249.411 102.427 248.764 102.998 248.204 103.649C246.021 106.108 243.233 111.373 247.044 120.325C252.669 133.496 253.503 138.685 253.503 138.685C253.503 138.685 242.83 139.247 240.743 139.667C238.657 140.087 229.664 140.356 229.664 140.356C229.664 140.356 226.16 146.95 230.504 149.625C230.504 149.625 230.635 149.563 230.849 149.474C227.96 146.502 230.924 140.927 230.924 140.927Z" fill="black"/>
<path d="M256.584 50.4696H247.891V72.4865H256.584V50.4696Z" fill="#493545"/>
<path opacity="0.1" d="M256.584 50.4696H247.891V72.4865H256.584V50.4696Z" fill="black"/>
<path d="M261.555 47.2397C261.855 47.3223 262.192 47.3327 262.395 47.7459C262.522 48.0761 262.59 48.4255 262.599 48.7789L263.146 55.583C263.154 56.0285 263.24 56.4691 263.401 56.8846C263.631 57.346 264.014 57.4011 264.313 57.6972C264.916 58.2964 265.091 59.7977 264.926 61.0201C264.761 62.2425 264.344 63.2893 264.017 64.3946C263.549 65.9786 263.239 67.7588 262.581 69.0948C261.924 70.4309 260.729 71.1609 259.958 70.0383C259.187 68.9158 259.29 66.65 259.145 64.794C258.904 61.695 257.696 59.0229 257.613 55.9032C257.544 53.3792 258.223 51.024 258.646 48.6308C258.949 46.9883 258.966 44.9946 259.407 43.5174C259.775 45.2735 260.478 46.9436 261.555 47.2397Z" fill="#493545"/>
<path opacity="0.1" d="M261.555 47.2397C261.855 47.3223 262.192 47.3327 262.395 47.7459C262.522 48.0761 262.59 48.4255 262.599 48.7789L263.146 55.583C263.154 56.0285 263.24 56.4691 263.401 56.8846C263.631 57.346 264.014 57.4011 264.313 57.6972C264.916 58.2964 265.091 59.7977 264.926 61.0201C264.761 62.2425 264.344 63.2893 264.017 64.3946C263.549 65.9786 263.239 67.7588 262.581 69.0948C261.924 70.4309 260.729 71.1609 259.958 70.0383C259.187 68.9158 259.29 66.65 259.145 64.794C258.904 61.695 257.696 59.0229 257.613 55.9032C257.544 53.3792 258.223 51.024 258.646 48.6308C258.949 46.9883 258.966 44.9946 259.407 43.5174C259.775 45.2735 260.478 46.9436 261.555 47.2397Z" fill="black"/>
<path d="M224.755 37.5673L221.391 40.3736C221.391 40.3736 220.992 39.9053 220.396 39.1478C218.059 36.1624 212.684 28.673 216.482 27.3335C220.279 25.9941 223.281 33.2975 224.342 36.3139C224.61 37.0783 224.755 37.5673 224.755 37.5673Z" fill="#C77485"/>
<path d="M285.473 36.5859C284.071 38.6898 282.109 36.5859 282.109 36.5859C282.109 36.5859 281.858 36.2106 281.503 35.6045C280.35 33.6521 278.088 29.3238 279.585 27.609C281.307 25.6497 285.572 32.3368 285.703 35.4737C285.744 35.8594 285.663 36.2481 285.473 36.5859Z" fill="#C77485"/>
<path d="M250.975 59.3053C250.975 59.3053 253.781 68.2822 252.938 70.9439C252.094 73.6056 258.97 76.7047 258.97 76.7047H266.823C266.823 76.7047 269.629 70.9542 268.926 69.2704C268.224 67.5866 262.196 66.3263 262.196 66.3263C262.196 66.3263 258.691 66.3263 258.832 56.9294L250.975 59.3053Z" fill="#C77485"/>
<path opacity="0.1" d="M224.755 37.5672L221.391 40.3736C221.391 40.3736 220.992 39.9053 220.396 39.1478C221.618 38.9308 223.515 37.1471 224.345 36.3138C224.61 37.0783 224.755 37.5672 224.755 37.5672Z" fill="black"/>
<path opacity="0.1" d="M285.473 36.5859C284.071 38.6898 282.109 36.5859 282.109 36.5859C282.109 36.5859 281.858 36.2105 281.503 35.6045L281.548 35.4633C282.457 36.1141 285.283 35.5597 285.703 35.4633C285.746 35.8524 285.665 36.2451 285.473 36.5859Z" fill="black"/>
<path opacity="0.1" d="M267.473 105.388C263.135 107.368 249.041 103.842 248.194 103.632C248.753 102.98 249.401 102.41 250.118 101.938L267.367 102.778C267.351 103.649 267.387 104.521 267.473 105.388Z" fill="black"/>
<path d="M252.8 67.0185C252.8 67.0185 249.436 68.141 244.668 63.792C244.668 63.792 233.995 53.2725 233.307 50.7485L225.044 36.2863C225.044 36.2863 221.539 40.074 220.135 39.5128L229.389 55.6415C229.389 55.6415 231.072 58.7406 232.615 59.567C232.615 59.567 244.114 74.2943 244.252 77.2384C244.389 80.1825 249.433 88.0678 249.433 88.0678C249.433 88.0678 251.117 100.829 248.17 103.074C248.17 103.074 264.575 107.282 268.079 104.476C268.079 104.476 266.537 88.636 268.079 86.9453C268.079 86.9453 272.848 81.336 269.622 75.1655C269.622 75.1655 268.933 71.8013 270.744 70.1175C272.555 68.4337 280.701 55.9515 280.701 55.9515C280.701 55.9515 282.663 53.1451 282.663 51.3236C282.663 51.3236 286.309 38.9825 285.762 35.756C285.762 35.756 282.536 36.4447 281.555 35.756C281.555 35.756 276.786 50.2182 276.225 50.7623C275.664 51.3063 271.749 62.6833 266.551 63.947C261.352 65.2107 260.522 65.7685 260.522 65.7685C260.522 65.7685 270.617 72.0802 265.711 74.8831C260.805 77.6861 252.8 67.0185 252.8 67.0185Z" fill="#FFAAC4"/>
<path opacity="0.1" d="M259.173 61.4643C259.006 60.1432 258.938 58.8115 258.97 57.4803L251.117 59.8631C251.323 60.3864 251.488 60.9252 251.609 61.4746C252.507 61.8706 253.719 62.8072 254.763 62.8072C256.341 62.8588 257.891 62.3866 259.173 61.4643Z" fill="black"/>
<path d="M254.621 62.3906C258.648 62.3906 261.913 59.1253 261.913 55.0975C261.913 51.0696 258.648 47.8044 254.621 47.8044C250.594 47.8044 247.329 51.0696 247.329 55.0975C247.329 59.1253 250.594 62.3906 254.621 62.3906Z" fill="#C77485"/>
<path opacity="0.1" d="M245.945 43.8617C244.341 43.9857 242.551 45.0945 242.64 46.7025C242.689 47.5875 243.294 48.3347 243.56 49.1818C244.197 51.2306 242.778 53.2863 241.532 55.0355C240.285 56.7847 239.122 59.1021 240.189 60.9547C240.493 61.4007 240.822 61.8295 241.174 62.239C242.492 64.0193 242.475 66.4228 243.06 68.5611C243.808 71.2968 245.575 73.6421 247.998 75.1151C250.421 76.5881 253.316 77.0769 256.088 76.4809C255.044 75.1485 254.524 73.4805 254.625 71.791C254.704 70.5651 255.1 69.2842 254.625 68.1513C254.012 66.6948 252.215 66.1197 251.289 64.8457C250.363 63.5716 250.425 61.8052 250.872 60.2867C251.32 58.7681 252.094 57.3598 252.466 55.8103C252.558 55.3582 252.673 54.9111 252.81 54.4708C253.458 52.632 255.393 51.5646 257.286 51.1066C259.18 50.6486 261.17 50.6211 263.019 50.0185C264.867 49.4159 266.664 48.0041 266.878 46.0655C265.322 46.6888 263.879 45.0635 262.378 44.3163C259.906 43.0904 257.086 44.244 254.539 44.5263C251.636 44.85 248.882 43.6482 245.945 43.8617Z" fill="black"/>
<path d="M245.804 43.5828C244.2 43.7068 242.41 44.8156 242.499 46.4236C242.547 47.3086 243.153 48.0558 243.418 48.9029C244.055 50.9517 242.637 53.0074 241.391 54.7566C240.144 56.5058 238.981 58.8232 240.048 60.6758C240.352 61.1218 240.681 61.5506 241.033 61.9601C242.351 63.7404 242.334 66.1439 242.919 68.2822C243.667 71.0178 245.434 73.3632 247.857 74.8362C250.28 76.3092 253.175 76.798 255.947 76.202C254.903 74.8696 254.383 73.2016 254.484 71.5121C254.563 70.2862 254.959 69.0053 254.484 67.8724C253.871 66.4159 252.074 65.8408 251.148 64.5668C250.221 63.2927 250.283 61.5263 250.731 60.0077C251.179 58.4892 251.953 57.0809 252.325 55.5314C252.417 55.0793 252.532 54.6322 252.669 54.1919C253.317 52.3531 255.251 51.2857 257.145 50.8277C259.039 50.3697 261.029 50.3422 262.877 49.7396C264.726 49.137 266.523 47.7252 266.737 45.7866C265.181 46.4098 263.738 44.7846 262.237 44.0374C259.765 42.8115 256.945 43.9651 254.398 44.2474C251.502 44.5676 248.758 43.3521 245.804 43.5828Z" fill="#493545"/>
<path opacity="0.1" d="M261.844 71.2986C261.844 71.2986 264.764 73.9052 265.339 75.0553L261.844 71.2986Z" fill="black"/>
<path opacity="0.1" d="M268.162 86.8661C268.162 86.8661 264.516 86.8661 262.833 87.2862C261.149 87.7063 257.083 87.2862 257.083 87.2862" fill="black"/>
<g opacity="0.1">
<path opacity="0.1" d="M265.7 74.8728C265.386 75.0527 265.046 75.1828 264.692 75.2585C265.606 75.4612 266.563 75.3241 267.384 74.8728C272.293 72.0664 262.196 65.7582 262.196 65.7582H260.512C260.512 65.7582 270.61 72.0699 265.7 74.8728Z" fill="black"/>
<path opacity="0.1" d="M285.786 36.0005C285.786 35.911 285.765 35.8249 285.751 35.7457C285.175 35.8652 284.592 35.9537 284.006 36.0108C284.598 36.0759 285.195 36.0725 285.786 36.0005Z" fill="black"/>
<path opacity="0.1" d="M249.856 103.064C252.8 100.819 251.12 88.0575 251.12 88.0575C251.12 88.0575 246.073 80.2031 245.932 77.2591C245.79 74.315 234.295 59.5877 234.295 59.5877C232.753 58.7475 231.069 55.6622 231.069 55.6622C231.069 55.6622 221.532 40.0947 220.131 39.5334L229.385 55.6622C229.385 55.6622 231.069 58.7612 232.611 59.5877C232.611 59.5877 244.11 74.315 244.248 77.2591C244.386 80.2031 249.433 88.0678 249.433 88.0678C249.433 88.0678 251.117 100.829 248.169 103.074C248.169 103.074 258.254 105.66 264.299 105.426C258.24 105.212 249.856 103.064 249.856 103.064Z" fill="black"/>
<path opacity="0.1" d="M252.883 67.1286L252.8 67.0219C252.704 67.0503 252.606 67.0722 252.507 67.0873C252.638 67.1045 252.762 67.1183 252.883 67.1286Z" fill="black"/>
</g>
<g opacity="0.1">
<path opacity="0.1" d="M285.752 35.7285L285.666 35.7457C285.517 40.0534 282.529 50.1735 282.529 50.1735C282.529 51.995 280.567 54.8014 280.567 54.8014C280.567 54.8014 272.435 67.2836 270.61 68.9674C268.785 70.6512 269.488 74.0154 269.488 74.0154L269.505 74.0498C269.45 72.917 269.587 71.1608 270.748 70.0865C272.569 68.4027 280.704 55.9205 280.704 55.9205C280.704 55.9205 282.667 53.1141 282.667 51.2926C282.667 51.3132 286.313 38.9721 285.752 35.7285Z" fill="black"/>
<path opacity="0.1" d="M267.945 85.8125C268.155 87.0039 268.014 85.7436 268.086 86.935C268.086 86.935 271.529 82.8959 270.589 77.903C270.872 82.3656 267.945 85.8125 267.945 85.8125Z" fill="black"/>
</g>
</g>
<defs>
<linearGradient id="paint0_linear" x1="131.816" y1="162.994" x2="131.816" y2="162.977" gradientUnits="userSpaceOnUse">
<stop stop-color="#808080" stop-opacity="0.25"/>
<stop offset="0.54" stop-color="#808080" stop-opacity="0.12"/>
<stop offset="1" stop-color="#808080" stop-opacity="0.1"/>
</linearGradient>
<linearGradient id="paint1_linear" x1="22170.3" y1="69624.7" x2="22170.3" y2="31216.1" gradientUnits="userSpaceOnUse">
<stop stop-color="#808080" stop-opacity="0.25"/>
<stop offset="0.54" stop-color="#808080" stop-opacity="0.12"/>
<stop offset="1" stop-color="#808080" stop-opacity="0.1"/>
</linearGradient>
<linearGradient id="paint2_linear" x1="62453.7" y1="84398.6" x2="62453.7" y2="27356.1" gradientUnits="userSpaceOnUse">
<stop stop-color="#808080" stop-opacity="0.25"/>
<stop offset="0.54" stop-color="#808080" stop-opacity="0.12"/>
<stop offset="1" stop-color="#808080" stop-opacity="0.1"/>
</linearGradient>
<clipPath id="clip0">
<rect width="327" height="192" fill="white"/>
</clipPath>
</defs>
</svg>
