<svg width="32" height="32" viewBox="0 0 32 32" fill="none" xmlns="http://www.w3.org/2000/svg">
<path d="M16 2.27917C16.0001 0.650392 14.3523 -0.44909 12.8594 0.17947C10.6185 1.12293 8 3.14106 8 7.42127V13.7208C7.99995 15.3496 9.64769 16.4491 11.1406 15.8205C13.3815 14.8771 16 12.8589 16 8.57873V2.27917Z" fill="#00C7E6"/>
<path d="M16 29.7208C15.9999 31.3496 17.6477 32.4491 19.1406 31.8205C21.3815 30.8771 24 28.8589 24 24.5787V18.2792C24.0001 16.6504 22.3523 15.5509 20.8594 16.1795C18.6185 17.1229 16 19.1411 16 23.4213V29.7208Z" fill="#2684FF"/>
<path d="M2.27917 16C0.650392 15.9999 -0.44909 17.6477 0.17947 19.1406C1.12293 21.3815 3.14106 24 7.42127 24L13.7208 24C15.3496 24.0001 16.4491 22.3523 15.8205 20.8594C14.8771 18.6185 12.8589 16 8.57873 16L2.27917 16Z" fill="#57D9A3"/>
<path d="M29.7208 16C31.3496 16.0001 32.4491 14.3523 31.8205 12.8594C30.8771 10.6185 28.8589 8 24.5787 8L18.2792 8C16.6504 7.99995 15.5509 9.64769 16.1795 11.1406C17.1229 13.3815 19.1411 16 23.4213 16L29.7208 16Z" fill="#8777D9"/>
</svg>
