<svg width="136" height="32" viewBox="0 0 136 32" fill="none" xmlns="http://www.w3.org/2000/svg">
<path d="M16 2.27917C16.0001 0.650392 14.3523 -0.44909 12.8594 0.17947C10.6185 1.12293 8 3.14106 8 7.42127V13.7208C7.99995 15.3496 9.64769 16.4491 11.1406 15.8205C13.3815 14.8771 16 12.8589 16 8.57873V2.27917Z" fill="#2BCDC1"/>
<path d="M16 29.7208C15.9999 31.3496 17.6477 32.4491 19.1406 31.8205C21.3815 30.8771 24 28.8589 24 24.5787V18.2792C24.0001 16.6504 22.3523 15.5509 20.8594 16.1795C18.6185 17.1229 16 19.1411 16 23.4213V29.7208Z" fill="#6F30FE"/>
<path d="M2.27917 16C0.650392 15.9999 -0.44909 17.6477 0.17947 19.1406C1.12293 21.3815 3.14106 24 7.42127 24L13.7208 24C15.3496 24.0001 16.4491 22.3523 15.8205 20.8594C14.8771 18.6185 12.8589 16 8.57873 16L2.27917 16Z" fill="#00AFF0"/>
<path d="M29.7208 16C31.3496 16.0001 32.4491 14.3523 31.8205 12.8594C30.8771 10.6185 28.8589 8 24.5787 8L18.2792 8C16.6504 7.99995 15.5509 9.64769 16.1795 11.1406C17.1229 13.3815 19.1411 16 23.4213 16L29.7208 16Z" fill="#F94877"/>
<path d="M45.2418 26L40.4018 10.16H43.4818L47.4418 23.184L51.4678 10.16H54.5478L49.7078 26H45.2418ZM60.2403 26.33C59.045 26.33 57.9963 26.0623 57.0943 25.527C56.1923 24.9917 55.4883 24.2547 54.9823 23.316C54.4836 22.37 54.2343 21.2847 54.2343 20.06C54.2343 18.8207 54.491 17.7317 55.0043 16.793C55.5176 15.847 56.2253 15.11 57.1273 14.582C58.0293 14.054 59.067 13.79 60.2403 13.79C61.4356 13.79 62.4843 14.0577 63.3863 14.593C64.2956 15.1283 65.0033 15.869 65.5093 16.815C66.0153 17.7537 66.2683 18.8353 66.2683 20.06C66.2683 21.292 66.0116 22.381 65.4983 23.327C64.9923 24.2657 64.2846 25.0027 63.3753 25.538C62.4733 26.066 61.4283 26.33 60.2403 26.33ZM60.2403 23.536C61.201 23.536 61.916 23.2133 62.3853 22.568C62.862 21.9153 63.1003 21.0793 63.1003 20.06C63.1003 19.004 62.8583 18.1607 62.3743 17.53C61.8976 16.8993 61.1863 16.584 60.2403 16.584C59.5876 16.584 59.0523 16.7307 58.6343 17.024C58.2163 17.3173 57.9046 17.7243 57.6993 18.245C57.5013 18.7657 57.4023 19.3707 57.4023 20.06C57.4023 21.1233 57.6406 21.9703 58.1173 22.601C58.6013 23.2243 59.309 23.536 60.2403 23.536ZM68.9073 26V9.83H71.8993V26H68.9073ZM79.619 26.352C78.6877 26.352 77.9287 26.1943 77.342 25.879C76.7554 25.5637 76.297 25.164 75.967 24.68C75.6444 24.196 75.4134 23.6937 75.274 23.173C75.1347 22.645 75.0504 22.1647 75.021 21.732C74.9917 21.2993 74.977 20.984 74.977 20.786V14.12H78.013V19.73C78.013 20.0013 78.0277 20.3497 78.057 20.775C78.0864 21.193 78.178 21.6147 78.332 22.04C78.486 22.4653 78.7354 22.821 79.08 23.107C79.432 23.393 79.927 23.536 80.565 23.536C80.8217 23.536 81.0967 23.4957 81.39 23.415C81.6834 23.3343 81.9584 23.1803 82.215 22.953C82.4717 22.7183 82.6807 22.3773 82.842 21.93C83.0107 21.4753 83.095 20.8813 83.095 20.148L84.811 20.962C84.811 21.9007 84.6204 22.7807 84.239 23.602C83.8577 24.4233 83.282 25.087 82.512 25.593C81.7494 26.099 80.785 26.352 79.619 26.352ZM83.469 26V22.062H83.095V14.12H86.109V26H83.469ZM97.2794 26V20.39C97.2794 20.1187 97.2647 19.774 97.2354 19.356C97.206 18.9307 97.1144 18.5053 96.9604 18.08C96.8064 17.6547 96.5534 17.299 96.2014 17.013C95.8567 16.727 95.3654 16.584 94.7274 16.584C94.4707 16.584 94.1957 16.6243 93.9024 16.705C93.609 16.7857 93.334 16.9433 93.0774 17.178C92.8207 17.4053 92.608 17.7427 92.4394 18.19C92.278 18.6373 92.1974 19.2313 92.1974 19.972L90.4814 19.158C90.4814 18.2193 90.672 17.3393 91.0534 16.518C91.4347 15.6967 92.0067 15.033 92.7694 14.527C93.5394 14.021 94.5074 13.768 95.6734 13.768C96.6047 13.768 97.3637 13.9257 97.9504 14.241C98.537 14.5563 98.9917 14.956 99.3144 15.44C99.6444 15.924 99.879 16.43 100.018 16.958C100.158 17.4787 100.242 17.9553 100.271 18.388C100.301 18.8207 100.315 19.136 100.315 19.334V26H97.2794ZM89.1614 26V14.12H91.8234V18.058H92.1974V26H89.1614ZM110.87 26.33C109.872 26.33 108.923 26.154 108.021 25.802C107.119 25.4427 106.319 24.9147 105.623 24.218C104.933 23.5213 104.387 22.6597 103.984 21.633C103.588 20.6063 103.39 19.422 103.39 18.08C103.39 16.3273 103.723 14.8387 104.391 13.614C105.065 12.382 105.967 11.4433 107.097 10.798C108.233 10.1527 109.491 9.83 110.87 9.83C112.908 9.83 114.511 10.303 115.677 11.249C116.843 12.195 117.624 13.5333 118.02 15.264L114.962 15.704C114.676 14.78 114.206 14.043 113.554 13.493C112.908 12.9357 112.08 12.6533 111.068 12.646C110.063 12.6313 109.227 12.8477 108.56 13.295C107.892 13.7423 107.39 14.3767 107.053 15.198C106.723 16.0193 106.558 16.98 106.558 18.08C106.558 19.18 106.723 20.1333 107.053 20.94C107.39 21.7467 107.892 22.3737 108.56 22.821C109.227 23.2683 110.063 23.4993 111.068 23.514C111.75 23.5287 112.366 23.4113 112.916 23.162C113.473 22.9127 113.942 22.5203 114.324 21.985C114.705 21.4497 114.976 20.764 115.138 19.928H112.63V17.618H118.328C118.342 17.7133 118.353 17.882 118.361 18.124C118.368 18.366 118.372 18.5053 118.372 18.542C118.372 20.06 118.064 21.4057 117.448 22.579C116.832 23.7523 115.963 24.6727 114.841 25.34C113.719 26 112.395 26.33 110.87 26.33ZM127.374 26.33C125.79 26.33 124.423 25.9853 123.271 25.296C122.127 24.6067 121.244 23.6423 120.62 22.403C120.004 21.1637 119.696 19.7227 119.696 18.08C119.696 16.4373 120.004 14.9963 120.62 13.757C121.244 12.5177 122.127 11.5533 123.271 10.864C124.423 10.1747 125.79 9.83 127.374 9.83C128.958 9.83 130.322 10.1747 131.466 10.864C132.618 11.5533 133.501 12.5177 134.117 13.757C134.741 14.9963 135.052 16.4373 135.052 18.08C135.052 19.7227 134.741 21.1637 134.117 22.403C133.501 23.6423 132.618 24.6067 131.466 25.296C130.322 25.9853 128.958 26.33 127.374 26.33ZM127.374 23.514C128.379 23.5287 129.215 23.3123 129.882 22.865C130.55 22.4177 131.048 21.7833 131.378 20.962C131.716 20.1407 131.884 19.18 131.884 18.08C131.884 16.98 131.716 16.0267 131.378 15.22C131.048 14.4133 130.55 13.7863 129.882 13.339C129.215 12.8917 128.379 12.6607 127.374 12.646C126.37 12.6313 125.534 12.8477 124.866 13.295C124.199 13.7423 123.697 14.3767 123.359 15.198C123.029 16.0193 122.864 16.98 122.864 18.08C122.864 19.18 123.029 20.1333 123.359 20.94C123.697 21.7467 124.199 22.3737 124.866 22.821C125.534 23.2683 126.37 23.4993 127.374 23.514Z" fill="white"/>
</svg>
