<svg width="40" height="40" viewBox="0 0 40 40" fill="none" xmlns="http://www.w3.org/2000/svg">
<g opacity="0.5">
<path d="M20.0001 25.3334C22.9456 25.3334 25.3334 22.9456 25.3334 20.0001C25.3334 17.0546 22.9456 14.6667 20.0001 14.6667C17.0546 14.6667 14.6667 17.0546 14.6667 20.0001C14.6667 22.9456 17.0546 25.3334 20.0001 25.3334Z" fill="white"/>
<path d="M14.9999 3.33325L11.9499 6.66658H6.66659C4.83325 6.66658 3.33325 8.16658 3.33325 9.99992V29.9999C3.33325 31.8333 4.83325 33.3332 6.66659 33.3332H33.3333C35.1666 33.3332 36.6666 31.8333 36.6666 29.9999V9.99992C36.6666 8.16658 35.1666 6.66658 33.3333 6.66658H28.0499L24.9999 3.33325H14.9999ZM19.9999 28.3333C15.3999 28.3333 11.6666 24.5999 11.6666 19.9999C11.6666 15.3999 15.3999 11.6666 19.9999 11.6666C24.5999 11.6666 28.3333 15.3999 28.3333 19.9999C28.3333 24.5999 24.5999 28.3333 19.9999 28.3333Z" fill="white"/>
</g>
</svg>
