<svg width="48" height="48" viewBox="0 0 48 48" fill="none" xmlns="http://www.w3.org/2000/svg">
<path d="M6 26C6 30.7739 7.89642 35.3523 11.2721 38.7279C14.6477 42.1036 19.2261 44 24 44C24 39.2261 22.1036 34.6477 18.7279 31.2721C15.3523 27.8964 10.7739 26 6 26ZM24 44C28.7739 44 33.3523 42.1036 36.7279 38.7279C40.1036 35.3523 42 30.7739 42 26C37.2261 26 32.6477 27.8964 29.2721 31.2721C25.8964 34.6477 24 39.2261 24 44ZM36 6V16C36 19.1826 34.7357 22.2348 32.4853 24.4853C30.2348 26.7357 27.1826 28 24 28C20.8174 28 17.7652 26.7357 15.5147 24.4853C13.2643 22.2348 12 19.1826 12 16V6C13.48 6 14.94 6.24 16.32 6.78C17.42 7.24 18.4 7.92 19.22 8.78L24 4L28.78 8.78C29.6 7.92 30.58 7.24 31.68 6.78C33.0585 6.25208 34.5239 5.9875 36 6Z" fill="#333333"/>
</svg>
