<svg width="40" height="40" viewBox="0 0 40 40" fill="none" xmlns="http://www.w3.org/2000/svg">
<g opacity="0.5">
<path d="M17.7332 4.24486C17.9515 4.2073 18.1759 4.22859 18.3832 4.30652L30.4366 8.83319C30.6707 8.92091 30.873 9.077 31.0173 9.28119C31.1616 9.48537 31.2411 9.72822 31.2456 9.97819C31.2501 10.2282 31.1793 10.4737 31.0425 10.6829C30.9056 10.8922 30.7091 11.0554 30.4782 11.1515L29.0466 11.7482C27.6599 12.3258 26.4926 13.329 25.7132 14.6132L24.8116 16.0999C24.9532 17.0182 25.3899 18.1832 26.0116 19.3832C26.5955 20.5217 27.2929 21.5982 28.0932 22.5965L32.0632 24.5815C32.8237 24.9622 33.4632 25.547 33.91 26.2706C34.3569 26.9941 34.5934 27.8278 34.5932 28.6782V33.3382C34.5932 33.5019 34.561 33.664 34.4983 33.8153C34.4357 33.9665 34.3439 34.104 34.2281 34.2197C34.1123 34.3355 33.9749 34.4273 33.8236 34.49C33.6724 34.5526 33.5103 34.5849 33.3466 34.5849H31.9516C26.0799 34.5849 19.4182 32.6265 13.8849 29.6682C8.40824 26.7415 3.7349 22.6682 2.2349 18.2299C2.17974 18.0667 2.15896 17.894 2.17388 17.7224C2.18879 17.5509 2.23908 17.3843 2.32157 17.2332C2.88824 16.1932 3.49824 15.2249 4.13324 14.3249C4.42324 13.9165 4.93324 13.3682 5.36157 12.9165L5.6699 12.5915C5.94555 12.3089 6.21343 12.0188 6.47324 11.7215C7.02824 11.1065 7.80657 10.3215 8.7249 9.49486C9.91157 8.42486 11.3582 7.26152 12.8916 6.29486C14.4082 5.33986 16.0882 4.52819 17.7332 4.24652V4.24486ZM25.7616 23.6632C25.0201 22.6734 24.3623 21.6237 23.7949 20.5249C23.1649 19.3032 22.6049 17.9315 22.3782 16.6549L20.2549 15.6715L22.8766 22.2799C22.997 22.5828 22.994 22.9208 22.8682 23.2215L21.7482 25.8982L23.7716 26.6465L25.7616 23.6632ZM26.2482 27.4282C28.3516 28.0332 29.4632 28.3482 32.1016 28.6965V28.6765C32.1016 27.8865 31.6549 27.1649 30.9482 26.8099L27.7332 25.2032L26.2482 27.4282ZM32.1016 31.2115C28.9849 30.8115 27.7549 30.4582 25.4349 29.7882C24.9799 29.6565 24.4849 29.5149 23.9249 29.3565C23.8929 29.3478 23.8612 29.3378 23.8299 29.3265L19.6632 27.7865C19.6282 27.7736 19.5937 27.7592 19.5599 27.7432C16.0982 26.0932 14.1616 24.8765 11.7549 23.1182C8.8249 20.9749 6.64824 18.8815 5.22824 17.1932C5.07824 17.4349 4.93157 17.6815 4.78824 17.9332C6.1699 21.2999 10.0099 24.7665 15.0632 27.4682C20.3149 30.2765 26.5749 32.0899 31.9532 32.0899H32.1032V31.2115H32.1016ZM6.73657 15.0965C7.7299 16.3632 9.35324 18.0532 11.6282 19.8799L12.3366 15.9865L9.4199 12.2599C8.9949 12.6765 8.62824 13.0565 8.33824 13.3765C8.12157 13.6349 7.77157 13.9999 7.4349 14.3549C7.20117 14.6012 6.96839 14.8484 6.73657 15.0965ZM11.2732 10.5832L14.6449 14.8932C14.7534 15.0318 14.8314 15.1919 14.8736 15.3628C14.9159 15.5337 14.9214 15.7116 14.8899 15.8849L13.8566 21.5632C15.625 22.8384 17.4984 23.9613 19.4566 24.9199L20.3716 22.7299L16.7849 13.6899C16.6926 13.458 16.6721 13.2038 16.7259 12.9601C16.7797 12.7164 16.9054 12.4945 17.0867 12.3231C17.268 12.1516 17.4966 12.0385 17.7429 11.9984C17.9892 11.9584 18.2419 11.9931 18.4682 12.0982L23.0399 14.2149L23.5832 13.3182C24.3755 12.0135 25.4681 10.9169 26.7699 10.1199L17.8366 6.76819C16.7349 7.01819 15.4932 7.60486 14.2216 8.40652C13.1882 9.05652 12.1816 9.81986 11.2716 10.5832H11.2732Z" fill="white"/>
</g>
</svg>
