<svg width="48" height="48" viewBox="0 0 48 48" fill="none" xmlns="http://www.w3.org/2000/svg">
<path d="M24 31.5C27.3137 31.5 30 28.8137 30 25.5C30 22.1863 27.3137 19.5 24 19.5C20.6863 19.5 18 22.1863 18 25.5C18 28.8137 20.6863 31.5 24 31.5Z" fill="#333333"/>
<path d="M40.5 13.5H34.9688C34.6875 13.5 34.3388 13.3181 34.0669 13.0312L31.635 9.19312C31.5965 9.13221 31.5536 9.07424 31.5066 9.01969C30.6666 8.04 29.5312 7.5 28.3125 7.5H19.6875C18.4688 7.5 17.3334 8.04 16.4934 9.01969C16.4464 9.07424 16.4035 9.13221 16.365 9.19312L13.9331 13.0369C13.725 13.2637 13.4325 13.5056 13.125 13.5056V12.7556C13.125 12.3578 12.967 11.9763 12.6857 11.695C12.4044 11.4137 12.0228 11.2556 11.625 11.2556H9.375C8.97718 11.2556 8.59564 11.4137 8.31434 11.695C8.03304 11.9763 7.875 12.3578 7.875 12.7556V13.5056H7.5C6.30691 13.5069 5.16303 13.9814 4.31939 14.825C3.47575 15.6687 3.00124 16.8125 3 18.0056V36C3.00124 37.1931 3.47575 38.337 4.31939 39.1806C5.16303 40.0243 6.30691 40.4988 7.5 40.5H40.5C41.6931 40.4988 42.837 40.0243 43.6806 39.1806C44.5243 38.337 44.9988 37.1931 45 36V18C44.9988 16.8069 44.5243 15.663 43.6806 14.8194C42.837 13.9757 41.6931 13.5012 40.5 13.5ZM24 34.5C22.22 34.5 20.4799 33.9722 18.9999 32.9832C17.5198 31.9943 16.3663 30.5887 15.6851 28.9442C15.0039 27.2996 14.8257 25.49 15.1729 23.7442C15.5202 21.9984 16.3774 20.3947 17.636 19.136C18.8947 17.8774 20.4984 17.0202 22.2442 16.6729C23.99 16.3257 25.7996 16.5039 27.4442 17.1851C29.0887 17.8663 30.4943 19.0198 31.4832 20.4999C32.4722 21.9799 33 23.72 33 25.5C32.9973 27.8861 32.0482 30.1737 30.3609 31.8609C28.6737 33.5482 26.3861 34.4973 24 34.5Z" fill="#333333"/>
</svg>
