<svg width="48" height="48" viewBox="0 0 48 48" fill="none" xmlns="http://www.w3.org/2000/svg">
<path d="M41.3438 31.5188L41.3381 31.5141C40.4072 30.6534 39.2025 30.4509 38.3231 30.3028L38.2584 30.2916C37.41 30.1519 37.2759 30.0572 36.8916 29.7131C36.6628 29.5097 36.39 29.1834 36.39 28.7812C36.39 28.3791 36.6628 28.0528 36.8906 27.8494L39.7294 25.3303C42.1594 23.1825 43.4981 20.2997 43.4981 17.2125C43.4981 14.1253 42.1622 11.2425 39.7294 9.09375C36.3647 6.13219 31.7606 4.5 26.7572 4.5C20.9738 4.5 15.1875 6.69094 10.875 10.5103C6.76219 14.145 4.5 19.0144 4.5 24.2203C4.5 29.4263 6.765 34.2956 10.875 37.9294C12.9141 39.7331 15.3272 41.1338 18.0488 42.0938C20.6664 43.0119 23.4188 43.4872 26.1928 43.5H26.3625C32.0813 43.5 37.5272 41.5716 41.3053 38.2125C42.2147 37.41 42.7256 36.2597 42.7434 34.9725C42.7631 33.6441 42.24 32.3522 41.3438 31.5188ZM10.5 19.5C10.5 18.9067 10.6759 18.3266 11.0056 17.8333C11.3352 17.3399 11.8038 16.9554 12.352 16.7284C12.9001 16.5013 13.5033 16.4419 14.0853 16.5576C14.6672 16.6734 15.2018 16.9591 15.6213 17.3787C16.0409 17.7982 16.3266 18.3328 16.4424 18.9147C16.5581 19.4967 16.4987 20.0999 16.2716 20.6481C16.0446 21.1962 15.6601 21.6648 15.1667 21.9944C14.6734 22.3241 14.0933 22.5 13.5 22.5C12.7044 22.5 11.9413 22.1839 11.3787 21.6213C10.8161 21.0587 10.5 20.2956 10.5 19.5ZM14.25 32.1562C13.6567 32.1562 13.0766 31.9803 12.5833 31.6507C12.0899 31.321 11.7054 30.8525 11.4784 30.3043C11.2513 29.7561 11.1919 29.1529 11.3076 28.571C11.4234 27.989 11.7091 27.4545 12.1287 27.0349C12.5482 26.6154 13.0828 26.3296 13.6647 26.2139C14.2467 26.0981 14.8499 26.1575 15.3981 26.3846C15.9462 26.6117 16.4148 26.9962 16.7444 27.4895C17.0741 27.9829 17.25 28.5629 17.25 29.1562C17.25 29.9519 16.9339 30.715 16.3713 31.2776C15.8087 31.8402 15.0457 32.1562 14.25 32.1562ZM18 13.5C18 12.9067 18.1759 12.3266 18.5056 11.8333C18.8352 11.3399 19.3038 10.9554 19.852 10.7284C20.4001 10.5013 21.0033 10.4419 21.5853 10.5576C22.1672 10.6734 22.7018 10.9591 23.1213 11.3787C23.5409 11.7982 23.8266 12.3328 23.9424 12.9147C24.0581 13.4967 23.9987 14.0999 23.7716 14.6481C23.5446 15.1962 23.1601 15.6648 22.6667 15.9944C22.1734 16.3241 21.5933 16.5 21 16.5C20.2044 16.5 19.4413 16.1839 18.8787 15.6213C18.3161 15.0587 18 14.2956 18 13.5ZM24 38.9062C23.11 38.9062 22.24 38.6423 21.4999 38.1479C20.7599 37.6534 20.1831 36.9506 19.8425 36.1283C19.502 35.3061 19.4128 34.4013 19.5865 33.5283C19.7601 32.6554 20.1887 31.8536 20.818 31.2243C21.4474 30.5949 22.2492 30.1663 23.1221 29.9927C23.995 29.8191 24.8998 29.9082 25.7221 30.2488C26.5443 30.5894 27.2472 31.1662 27.7416 31.9062C28.2361 32.6462 28.5 33.5162 28.5 34.4062C28.5 35.5997 28.0259 36.7443 27.182 37.5882C26.3381 38.4321 25.1935 38.9062 24 38.9062ZM30.75 16.5C30.1567 16.5 29.5766 16.3241 29.0833 15.9944C28.5899 15.6648 28.2054 15.1962 27.9784 14.6481C27.7513 14.0999 27.6919 13.4967 27.8076 12.9147C27.9234 12.3328 28.2091 11.7982 28.6287 11.3787C29.0482 10.9591 29.5828 10.6734 30.1647 10.5576C30.7467 10.4419 31.3499 10.5013 31.8981 10.7284C32.4462 10.9554 32.9148 11.3399 33.2444 11.8333C33.5741 12.3266 33.75 12.9067 33.75 13.5C33.75 14.2956 33.4339 15.0587 32.8713 15.6213C32.3087 16.1839 31.5457 16.5 30.75 16.5Z" fill="#333333"/>
</svg>
