<svg width="48" height="48" viewBox="0 0 48 48" fill="none" xmlns="http://www.w3.org/2000/svg">
<path fill-rule="evenodd" clip-rule="evenodd" d="M3.99994 20C3.99994 11.99 11.4639 6 19.9999 6C28.5359 6 35.9999 11.99 35.9999 20C35.9999 28.01 28.5359 34 19.9999 34C17.7935 34.0056 15.6049 33.6042 13.5439 32.816L6.31594 33.976C5.97952 34.0301 5.63486 33.9973 5.31467 33.8807C4.99448 33.7642 4.70937 33.5678 4.48639 33.3102C4.2634 33.0525 4.10994 32.7422 4.04056 32.4086C3.97118 32.075 3.98817 31.7292 4.08994 31.404L5.68994 26.278C4.5858 24.3697 4.00297 22.2047 3.99994 20ZM19.9999 36.334C18.1159 36.334 16.2899 36.088 14.5679 35.632C17.4719 39.526 22.5139 42 27.9999 42C30.2064 42.0057 32.3951 41.6043 34.4559 40.816L41.6839 41.976C42.0204 42.0301 42.365 41.9973 42.6852 41.8807C43.0054 41.7642 43.2905 41.5678 43.5135 41.3102C43.7365 41.0525 43.8899 40.7422 43.9593 40.4086C44.0287 40.075 44.0117 39.7292 43.9099 39.404L42.3099 34.278C43.4141 32.3697 43.9969 30.2047 43.9999 28C43.9999 23.656 41.8039 19.906 38.4339 17.384C38.5886 18.2474 38.6663 19.1228 38.6659 20C38.6659 29.346 29.9599 36.334 19.9999 36.334Z" fill="#333333"/>
</svg>
