<svg width="40" height="40" viewBox="0 0 40 40" fill="none" xmlns="http://www.w3.org/2000/svg">
<path d="M22.9717 25.2865L26.5067 21.7515L36.5 31.7448L32.965 35.2798L22.9717 25.2865ZM29.1667 16.6665C32.3833 16.6665 35 14.0498 35 10.8332C35 9.86651 34.7333 8.96651 34.3167 8.16651L29.8167 12.6665L27.3333 10.1832L31.8333 5.68318C31.0333 5.26651 30.1333 4.99985 29.1667 4.99985C25.95 4.99985 23.3333 7.61651 23.3333 10.8332C23.3333 11.5165 23.4667 12.1665 23.6833 12.7665L20.6 15.8498L17.6333 12.8832L18.8167 11.6998L16.4667 9.34985L20 5.81651C19.0625 4.88018 17.7917 4.35425 16.4667 4.35425C15.1417 4.35425 13.8708 4.88018 12.9333 5.81651L7.03333 11.7165L9.38333 14.0665H4.68333L3.5 15.2498L9.4 21.1498L10.5833 19.9665V15.2498L12.9333 17.5998L14.1167 16.4165L17.0833 19.3832L4.73333 31.7332L8.26667 35.2665L27.2333 16.3165C27.8333 16.5332 28.4833 16.6665 29.1667 16.6665Z" fill="#D4D7DB"/>
</svg>
