<svg width="48" height="48" viewBox="0 0 48 48" fill="none" xmlns="http://www.w3.org/2000/svg">
<path d="M26.2649 22.7616L23.8171 20.3128C23.2564 19.752 22.4965 19.436 21.7035 19.4339C20.9105 19.4318 20.1489 19.7437 19.5852 20.3016L2.5668 36.0075C1.94712 36.5916 1.54024 37.3359 1.50274 38.1694C1.4847 38.5827 1.55206 38.9954 1.70062 39.3815C1.84918 39.7677 2.07575 40.1191 2.36618 40.4138L6.02243 44.1103C6.02437 44.1127 6.02657 44.1149 6.02899 44.1169C6.59399 44.68 7.35845 44.9974 8.15618 45H8.2668C9.10024 44.9691 9.84649 44.5781 10.439 43.9528L26.2546 27.0122C26.5351 26.7342 26.7579 26.4035 26.9102 26.0391C27.0626 25.6748 27.1415 25.2839 27.1425 24.889C27.1434 24.4941 27.0664 24.1029 26.9158 23.7378C26.7652 23.3727 26.544 23.041 26.2649 22.7616ZM45.9374 17.8125L45.9084 17.7834L42.6956 14.6034C42.5074 14.4159 42.2839 14.2674 42.038 14.1667C41.7921 14.066 41.5288 14.0149 41.2631 14.0166C40.8326 14.017 40.4131 14.1527 40.064 14.4047C40.064 14.3644 40.0696 14.325 40.0724 14.2903C40.1146 13.6809 40.1802 12.7603 39.5849 11.9259C38.8771 10.9719 38.1 10.0714 37.2599 9.23157C37.2577 9.22884 37.2552 9.22632 37.2524 9.22407C36.0037 7.99407 33.2859 5.6775 29.1224 3.97969C27.5435 3.33166 25.853 2.99884 24.1462 3C21.1874 3 18.9374 4.335 18.0759 5.12625C17.588 5.59222 17.1431 6.10114 16.7465 6.64688C16.557 6.90841 16.457 7.22412 16.4613 7.54705C16.4657 7.86997 16.5741 8.18288 16.7705 8.43924C16.967 8.69559 17.2409 8.88171 17.5516 8.9699C17.8623 9.0581 18.1931 9.04367 18.4949 8.92875C18.7579 8.83047 19.0265 8.74813 19.2993 8.68219C19.8675 8.56202 20.4503 8.5257 21.029 8.57438C22.2656 8.67657 23.7281 9.29063 24.3749 9.80157C25.4718 10.6838 25.9996 11.8725 26.0868 13.6538C26.1037 14.0119 25.3631 15.3544 24.2118 16.8863C23.9925 17.1753 23.8854 17.5341 23.9104 17.8961C23.9354 18.2581 24.0908 18.5988 24.3477 18.855L27.5737 22.0809C27.8448 22.3527 28.2097 22.5101 28.5933 22.521C28.977 22.5318 29.3502 22.3951 29.6362 22.1391C30.5484 21.3244 31.9377 20.0963 32.4234 19.7953C33.1443 19.3519 33.6599 19.2666 33.8015 19.2516C34.1688 19.2155 34.5384 19.2934 34.8599 19.4747C34.8615 19.4907 34.8598 19.5069 34.8548 19.5223C34.8498 19.5376 34.8416 19.5517 34.8309 19.5638L34.6602 19.7259L34.6321 19.7522C34.4436 19.94 34.2941 20.1633 34.1922 20.4092C34.0903 20.655 34.0381 20.9186 34.0386 21.1847C34.039 21.4509 34.0921 21.7143 34.1948 21.9598C34.2974 22.2053 34.4477 22.4281 34.6368 22.6153L37.8487 25.7944C38.0369 25.9818 38.2604 26.1301 38.5063 26.2307C38.7522 26.3313 39.0155 26.3821 39.2812 26.3803C39.8146 26.3811 40.327 26.1724 40.7081 25.7991L45.9112 20.6597C45.929 20.6419 45.9468 20.6231 45.9637 20.6044C46.3127 20.2217 46.5041 19.7212 46.4992 19.2033C46.4943 18.6854 46.2936 18.1885 45.9374 17.8125Z" fill="#333333"/>
</svg>
