<svg width="40" height="40" viewBox="0 0 40 40" fill="none" xmlns="http://www.w3.org/2000/svg">
<g opacity="0.5">
<g clip-path="url(#clip0)">
<path d="M39.2679 3.04679L36.9531 0.731947C36.7209 0.49974 36.4453 0.31554 36.1419 0.189868C35.8386 0.0641951 35.5135 -0.000488281 35.1851 -0.000488281C34.8568 -0.000488281 34.5316 0.0641951 34.2283 0.189868C33.9249 0.31554 33.6493 0.49974 33.4171 0.731947L29.8015 4.35148C29.4984 4.65373 29.2702 5.02267 29.1351 5.42882L28.1851 8.28117L22.2273 14.239C21.2773 13.5546 20.2351 13.0093 19.0945 12.7437C16.4812 12.1359 13.8601 12.6749 12.0726 14.4624C11.3434 15.1946 10.8011 16.0914 10.4914 17.0773C10.0226 18.5273 8.67808 19.6312 7.19839 19.7694C5.34683 19.9468 3.62574 20.664 2.30699 21.9913C-1.25864 25.5468 -0.617233 31.953 3.71714 36.2851C8.05152 40.6171 14.4531 41.2499 18.0125 37.6968C19.3406 36.378 20.0562 34.6577 20.2351 32.7976C20.3726 31.3249 21.4765 29.9749 22.925 29.5054C23.9109 29.1951 24.808 28.6526 25.5406 27.9234C27.3273 26.1359 27.864 23.5202 27.2593 20.9116C26.9945 19.7679 26.4492 18.7241 25.7625 17.771L31.7187 11.8148L34.5687 10.8648C34.9749 10.7297 35.3438 10.5014 35.646 10.1984L39.2656 6.5796C39.7339 6.11118 39.9972 5.47606 39.9976 4.81368C39.9981 4.15131 39.7356 3.51583 39.2679 3.04679ZM16.25 27.4999C15.5083 27.4999 14.7832 27.28 14.1666 26.8679C13.5499 26.4559 13.0692 25.8702 12.7854 25.185C12.5016 24.4998 12.4273 23.7458 12.572 23.0183C12.7167 22.2909 13.0739 21.6227 13.5983 21.0983C14.1227 20.5738 14.7909 20.2167 15.5184 20.072C16.2458 19.9273 16.9998 20.0015 17.685 20.2854C18.3702 20.5692 18.9559 21.0498 19.368 21.6665C19.78 22.2832 20 23.0082 20 23.7499C20 24.7445 19.6049 25.6983 18.9016 26.4016C18.1983 27.1048 17.2445 27.4999 16.25 27.4999Z" fill="white"/>
</g>
</g>
<defs>
<clipPath id="clip0">
<rect width="40" height="40" fill="white"/>
</clipPath>
</defs>
</svg>
