<svg width="48" height="48" viewBox="0 0 48 48" fill="none" xmlns="http://www.w3.org/2000/svg">
<path d="M40 12H32V8C32 5.8 30.2 4 28 4H20C17.8 4 16 5.8 16 8V12H8C5.8 12 4 13.8 4 16V40C4 42.2 5.8 44 8 44H40C42.2 44 44 42.2 44 40V16C44 13.8 42.2 12 40 12ZM20 8H28V12H20V8ZM30 30H26V34C26 35.1 25.1 36 24 36C22.9 36 22 35.1 22 34V30H18C16.9 30 16 29.1 16 28C16 26.9 16.9 26 18 26H22V22C22 20.9 22.9 20 24 20C25.1 20 26 20.9 26 22V26H30C31.1 26 32 26.9 32 28C32 29.1 31.1 30 30 30Z" fill="#333333"/>
</svg>
