<svg width="48" height="48" viewBox="0 0 48 48" fill="none" xmlns="http://www.w3.org/2000/svg">
<path d="M41.4219 21.4219C41.0312 21.8385 40.6276 22.2812 40.2109 22.75C39.7943 23.2188 39.2669 23.8438 38.6289 24.625C37.9909 25.4062 37.4766 26.1875 37.0859 26.9688C36.6953 27.75 36.5 28.4271 36.5 29C36.5 29.7031 35.2826 30.2956 32.8477 30.7773C30.4128 31.2591 27.4635 31.5 24 31.5C20.5365 31.5 17.5872 31.2591 15.1523 30.7773C12.7174 30.2956 11.5 29.7031 11.5 29C11.5 28.2448 11.1484 27.3008 10.4453 26.168C9.74219 25.0352 9.08464 24.1237 8.47266 23.4336C7.86068 22.7435 7.25521 22.099 6.65625 21.5C4.88542 19.7812 4 17.6979 4 15.25C4 12.8281 4.85286 10.7643 6.55859 9.05859C8.26432 7.35286 10.3281 6.5 12.75 6.5C13.349 6.5 13.974 6.5651 14.625 6.69531C14.2083 7.76302 14 8.94792 14 10.25C14 13.0365 14.8594 15.3542 16.5781 17.2031C16.526 15.7969 16.5 14.3125 16.5 12.75C16.5 10.3281 17.2292 8.26432 18.6875 6.55859C20.1458 4.85286 21.9167 4 24 4C26.0833 4 27.8542 4.85286 29.3125 6.55859C30.7708 8.26432 31.5 10.3281 31.5 12.75C31.5 14.3385 31.474 15.8229 31.4219 17.2031C33.1406 15.3542 34 13.0365 34 10.25C34 8.94792 33.7917 7.76302 33.375 6.69531C34.026 6.5651 34.651 6.5 35.25 6.5C37.6719 6.5 39.7357 7.35286 41.4414 9.05859C43.1471 10.7643 44 12.8281 44 15.25C44 17.6719 43.1406 19.7292 41.4219 21.4219ZM23.9805 34C27.431 34 30.3802 33.7526 32.8281 33.2578C35.276 32.763 36.5 32.1771 36.5 31.5V41.5C36.5 42.1771 35.276 42.763 32.8281 43.2578C30.3802 43.7526 27.431 44 23.9805 44C20.5299 44 17.5872 43.7526 15.1523 43.2578C12.7174 42.763 11.5 42.1771 11.5 41.5V31.5C11.5 32.2031 12.7174 32.7956 15.1523 33.2773C17.5872 33.7591 20.5299 34 23.9805 34Z" fill="#333333"/>
</svg>
