<svg width="48" height="48" viewBox="0 0 48 48" fill="none" xmlns="http://www.w3.org/2000/svg">
<path d="M14.75 33.5617L17.25 30.4377L9.20202 23.9997L17.25 17.5617L14.75 14.4377L4.75002 22.4377C4.51571 22.6251 4.32656 22.8628 4.19657 23.1332C4.06658 23.4036 3.99908 23.6997 3.99908 23.9997C3.99908 24.2998 4.06658 24.5959 4.19657 24.8663C4.32656 25.1367 4.51571 25.3744 4.75002 25.5617L14.75 33.5617ZM33.25 14.4377L30.75 17.5617L38.798 23.9997L30.75 30.4377L33.25 33.5617L43.25 25.5617C43.4843 25.3744 43.6735 25.1367 43.8035 24.8663C43.9335 24.5959 44.001 24.2998 44.001 23.9997C44.001 23.6997 43.9335 23.4036 43.8035 23.1332C43.6735 22.8628 43.4843 22.6251 43.25 22.4377L33.25 14.4377Z" fill="#333333"/>
<path d="M29.952 6.43172L21.952 42.4317L18.046 41.5637L26.046 5.56372L29.952 6.43172Z" fill="#333333"/>
</svg>
