<svg width="48" height="48" viewBox="0 0 48 48" fill="none" xmlns="http://www.w3.org/2000/svg">
<path d="M44.8434 40.65L36.4059 20.2125C36.2501 19.8351 35.9858 19.5124 35.6464 19.2853C35.307 19.0583 34.9079 18.9371 34.4995 18.9371C34.0912 18.9371 33.6921 19.0583 33.3527 19.2853C33.0133 19.5124 32.749 19.8351 32.5931 20.2125L24.1556 40.65C24.0507 40.9006 23.9963 41.1695 23.9957 41.4412C23.995 41.7129 24.048 41.9821 24.1516 42.2333C24.2553 42.4844 24.4076 42.7126 24.5997 42.9048C24.7918 43.0969 25.02 43.2492 25.2711 43.3529C25.5223 43.4565 25.7914 43.5096 26.0631 43.5089C26.3348 43.5083 26.6037 43.4539 26.8544 43.349C27.105 43.2442 27.3325 43.0908 27.5237 42.8977C27.7148 42.7047 27.866 42.4757 27.9684 42.2241L29.6869 38.0625H39.3122L41.0306 42.2241C41.1864 42.6017 41.4508 42.9245 41.7903 43.1517C42.1297 43.3788 42.529 43.5 42.9375 43.5C43.2764 43.4998 43.6101 43.4161 43.9089 43.2563C44.2078 43.0964 44.4626 42.8654 44.651 42.5837C44.8393 42.3019 44.9553 41.9781 44.9887 41.6408C45.0221 41.3035 44.9719 40.9632 44.8425 40.65H44.8434ZM31.3903 33.9375L34.5 26.4047L37.6097 33.9375H31.3903ZM25.11 32.1488C25.4304 31.7061 25.5621 31.1545 25.4762 30.6149C25.3902 30.0752 25.0936 29.5918 24.6516 29.2706C24.6328 29.2566 23.2453 28.2272 21.2306 26.0147C24.9478 20.9822 27.0534 15.2569 27.9122 12.5625H30.9375C31.4845 12.5625 32.0091 12.3452 32.3959 11.9584C32.7827 11.5716 33 11.047 33 10.5C33 9.95299 32.7827 9.42839 32.3959 9.04159C32.0091 8.6548 31.4845 8.4375 30.9375 8.4375H20.0625V6.5625C20.0625 6.01549 19.8452 5.49089 19.4584 5.10409C19.0716 4.7173 18.547 4.5 18 4.5C17.453 4.5 16.9284 4.7173 16.5416 5.10409C16.1548 5.49089 15.9375 6.01549 15.9375 6.5625V8.4375H5.0625C4.51549 8.4375 3.99089 8.6548 3.60409 9.04159C3.2173 9.42839 3 9.95299 3 10.5C3 11.047 3.2173 11.5716 3.60409 11.9584C3.99089 12.3452 4.51549 12.5625 5.0625 12.5625H23.5547C22.6622 15.0891 21.0188 19.0781 18.5119 22.7213C15.5672 18.8138 14.4731 16.2853 14.4647 16.2647C14.2491 15.7665 13.8458 15.3734 13.3423 15.1706C12.8387 14.9678 12.2756 14.9717 11.7749 15.1814C11.2742 15.3912 10.8764 15.7899 10.6677 16.291C10.4591 16.7922 10.4564 17.3553 10.6603 17.8584C10.7147 17.9878 12.0244 21.0675 15.6159 25.7269C15.7022 25.8384 15.7875 25.9472 15.8728 26.0559C12.1941 30.2137 8.58469 32.7928 7.07438 33.6253C6.59413 33.8873 6.2376 34.3292 6.08324 34.8541C5.92887 35.3789 5.98931 35.9435 6.25125 36.4237C6.51319 36.904 6.95519 37.2605 7.47999 37.4149C8.0048 37.5693 8.56944 37.5088 9.04969 37.2469C9.25219 37.1362 13.6059 34.7259 18.5775 29.2228C20.6888 31.4803 22.14 32.5453 22.2272 32.6072C22.4466 32.7665 22.6952 32.8811 22.9589 32.9442C23.2225 33.0074 23.4961 33.0179 23.7638 32.9752C24.0316 32.9326 24.2883 32.8375 24.5193 32.6955C24.7503 32.5536 24.951 32.3674 25.11 32.1478V32.1488Z" fill="#333333"/>
</svg>
