<svg width="48" height="48" viewBox="0 0 48 48" fill="none" xmlns="http://www.w3.org/2000/svg">
<path d="M6 8.13037H16C16.5304 8.13037 17.0391 8.34108 17.4142 8.71616C17.7893 9.09123 18 9.59994 18 10.1304V38.1304C18 38.6608 17.7893 39.1695 17.4142 39.5446C17.0391 39.9197 16.5304 40.1304 16 40.1304H6C5.46957 40.1304 4.96086 39.9197 4.58579 39.5446C4.21071 39.1695 4 38.6608 4 38.1304V10.1304C4 9.59994 4.21071 9.09123 4.58579 8.71616C4.96086 8.34108 5.46957 8.13037 6 8.13037ZM6 30.1304V34.1304H10V30.1304H6ZM24 14.1304H40C41.0609 14.1304 42.0783 14.5518 42.8284 15.3019C43.5786 16.0521 44 17.0695 44 18.1304V30.1304C44 31.1912 43.5786 32.2087 42.8284 32.9588C42.0783 33.7089 41.0609 34.1304 40 34.1304H24C22.9391 34.1304 21.9217 33.7089 21.1716 32.9588C20.4214 32.2087 20 31.1912 20 30.1304V18.1304C20 17.0695 20.4214 16.0521 21.1716 15.3019C21.9217 14.5518 22.9391 14.1304 24 14.1304ZM28 36.1304H36C36.5304 36.1304 37.0391 36.3411 37.4142 36.7162C37.7893 37.0912 38 37.5999 38 38.1304C38 38.6608 37.7893 39.1695 37.4142 39.5446C37.0391 39.9197 36.5304 40.1304 36 40.1304H28C27.4696 40.1304 26.9609 39.9197 26.5858 39.5446C26.2107 39.1695 26 38.6608 26 38.1304C26 37.5999 26.2107 37.0912 26.5858 36.7162C26.9609 36.3411 27.4696 36.1304 28 36.1304Z" fill="#333333"/>
</svg>
