<svg width="40" height="40" viewBox="0 0 40 40" fill="none" xmlns="http://www.w3.org/2000/svg">
<g opacity="0.5">
<path d="M20 2.50488V8.75488C20 9.0864 20.1317 9.40435 20.3661 9.63877C20.6005 9.87319 20.9185 10.0049 21.25 10.0049C21.5815 10.0049 21.8995 9.87319 22.1339 9.63877C22.3683 9.40435 22.5 9.0864 22.5 8.75488V2.50488H25V11.2399C25 11.5714 25.1317 11.8893 25.3661 12.1238C25.6005 12.3582 25.9185 12.4899 26.25 12.4899C26.5815 12.4899 26.8995 12.3582 27.1339 12.1238C27.3683 11.8893 27.5 11.5714 27.5 11.2399V2.50488H31.25V17.4999H8.75V2.50488H20Z" fill="white"/>
<path d="M8.75 20V21.25C8.75 22.5761 9.27678 23.8479 10.2145 24.7855C11.1521 25.7232 12.4239 26.25 13.75 26.25H16.25V33.7475C16.25 34.7421 16.6451 35.6959 17.3483 36.3991C18.0516 37.1024 19.0054 37.4975 20 37.4975C20.9946 37.4975 21.9484 37.1024 22.6517 36.3991C23.3549 35.6959 23.75 34.7421 23.75 33.7475V26.2475H26.25C27.5761 26.2475 28.8479 25.7207 29.7855 24.783C30.7232 23.8454 31.25 22.5736 31.25 21.2475V20H8.75Z" fill="white"/>
</g>
</svg>
