<svg width="48" height="48" viewBox="0 0 48 48" fill="none" xmlns="http://www.w3.org/2000/svg">
<path d="M30.0243 9C32.5196 9 34.5425 6.98531 34.5425 4.5C34.5425 2.01469 32.5196 0 30.0243 0C27.5289 0 25.506 2.01469 25.506 4.5C25.506 6.98531 27.5289 9 30.0243 9ZM15.1226 29.7628L13.7295 32.9991H7.43317C5.7699 32.9991 4.42102 34.3425 4.42102 35.9991C4.42102 37.6556 5.7699 38.9991 7.43317 38.9991H14.7235C16.5355 38.9991 18.1668 37.9266 18.8756 36.2719L19.703 34.3481L18.6986 33.7575C17.0683 32.7984 15.8691 31.3791 15.1226 29.7628ZM40.5668 20.9991H36.4222L33.9692 16.0069C32.7926 13.6116 30.6323 11.8603 28.1539 11.2313L21.4632 9.24938C18.7993 8.61188 16.0253 9.19781 13.8537 10.8563L10.1196 13.7072C8.79899 14.715 8.5486 16.5975 9.56238 17.9128C10.5762 19.2281 12.4653 19.4747 13.785 18.4678L17.521 15.6169C18.243 15.0647 19.1627 14.8669 19.8997 15.0413L21.2834 15.4509L17.7573 23.6437C16.5694 26.4075 17.634 29.6447 20.2329 31.1728L28.232 35.8763L25.6463 44.1009C25.1493 45.6816 26.0332 47.3644 27.6202 47.8594C27.9205 47.9531 28.2236 47.9981 28.522 47.9981C29.8031 47.9981 30.991 47.1759 31.3948 45.8934L34.373 36.4191C34.9294 34.4719 34.101 32.3803 32.3361 31.32L26.5716 27.9319L29.5188 20.5931L31.4268 24.4772C32.1798 26.0091 33.7725 26.9981 35.4847 26.9981H40.5668C42.23 26.9981 43.5789 25.6547 43.5789 23.9981C43.5789 22.3416 42.23 20.9991 40.5668 20.9991Z" fill="#333333"/>
</svg>
