<svg width="40" height="40" viewBox="0 0 40 40" fill="none" xmlns="http://www.w3.org/2000/svg">
<g opacity="0.5">
<path d="M12.2916 27.9684L14.375 25.3651L7.6683 20.0001L14.375 14.6351L12.2916 12.0317L3.9583 18.6984C3.76304 18.8545 3.60541 19.0526 3.49709 19.2779C3.38876 19.5033 3.33252 19.7501 3.33252 20.0001C3.33252 20.2501 3.38876 20.4969 3.49709 20.7222C3.60541 20.9475 3.76304 21.1456 3.9583 21.3017L12.2916 27.9684ZM27.7083 12.0317L25.625 14.6351L32.3316 20.0001L25.625 25.3651L27.7083 27.9684L36.0416 21.3017C36.2369 21.1456 36.3945 20.9475 36.5028 20.7222C36.6112 20.4969 36.6674 20.2501 36.6674 20.0001C36.6674 19.7501 36.6112 19.5033 36.5028 19.2779C36.3945 19.0526 36.2369 18.8545 36.0416 18.6984L27.7083 12.0317Z" fill="white"/>
<path d="M24.96 5.36005L18.2933 35.3601L15.0383 34.6367L21.705 4.63672L24.96 5.36005Z" fill="white"/>
</g>
</svg>
