<svg width="48" height="48" viewBox="0 0 48 48" fill="none" xmlns="http://www.w3.org/2000/svg">
<path d="M39.5476 3.50364C39.2507 3.27495 38.9049 3.11818 38.5373 3.04563C38.1697 2.97308 37.7903 2.98673 37.4288 3.08552L18.7426 8.10864C18.0942 8.28279 17.5221 8.66746 17.1161 9.20219C16.7102 9.73692 16.4935 10.3914 16.5001 11.0627V32.2502C16.5001 32.8821 16.0913 33.4277 15.4585 33.6405L15.4472 33.6452L10.5722 35.3327C8.70755 35.9561 7.50005 37.6877 7.50005 39.7418C7.49322 40.5772 7.68754 41.4021 8.06659 42.1466C8.44563 42.8912 8.99828 43.5336 9.67786 44.0196C10.553 44.6553 11.6065 44.9985 12.6882 45.0002C13.2541 44.9992 13.8161 44.9065 14.3522 44.7255L14.3879 44.7133L16.4354 43.969C17.3235 43.6724 18.0966 43.1054 18.6462 42.3473C19.1959 41.5892 19.4944 40.6781 19.5001 39.7418V19.8668C19.5001 19.1833 19.9472 18.6283 20.6401 18.454L20.6597 18.4483L37.0313 14.0758C37.0866 14.0615 37.1445 14.0601 37.2004 14.0716C37.2564 14.0831 37.309 14.1072 37.3542 14.1421C37.3994 14.177 37.4361 14.2218 37.4614 14.273C37.4866 14.3242 37.4999 14.3806 37.5 14.4377V27.7436C37.5 28.3765 37.1016 28.9043 36.4585 29.1199L36.4351 29.1283L31.6641 30.8261C30.7363 31.1313 29.9296 31.7237 29.3608 32.5177C28.792 33.3117 28.4905 34.266 28.5001 35.2427C28.4917 36.0807 28.6852 36.9083 29.0643 37.6557C29.4433 38.4031 29.9968 39.0482 30.6779 39.5365C31.3447 40.0185 32.1178 40.3328 32.9317 40.4527C33.7457 40.5727 34.5766 40.4947 35.3541 40.2255L35.3879 40.2143L37.4354 39.469C38.3235 39.1726 39.0965 38.6057 39.6461 37.8478C40.1958 37.0899 40.4944 36.1789 40.5 35.2427V5.4377C40.5021 5.06355 40.4171 4.69405 40.2518 4.35839C40.0865 4.02273 39.8454 3.73011 39.5476 3.50364Z" fill="#333333"/>
</svg>
