<svg width="40" height="40" viewBox="0 0 40 40" fill="none" xmlns="http://www.w3.org/2000/svg">
<g opacity="0.5">
<path d="M9.72502 12.7273V11.2727C9.72502 9.34388 10.4913 7.49403 11.8552 6.13013C13.2191 4.76623 15.0689 4 16.9977 4C18.9266 4 20.7764 4.76623 22.1403 6.13013C23.5042 7.49403 24.2705 9.34388 24.2705 11.2727V28.1251L31.1505 21.2451L30.141 17.4778L30.1381 17.4604H30.1352C30.0527 17.1507 30.0747 16.8224 30.1979 16.5266C30.3212 16.2307 30.5386 15.9838 30.8166 15.8243C31.0946 15.6647 31.4174 15.6015 31.735 15.6443C32.0527 15.6871 32.3472 15.8336 32.573 16.0611L38.3912 21.8793C38.6175 22.1048 38.7633 22.3987 38.8059 22.7153C38.8486 23.032 38.7858 23.3539 38.6272 23.6313C38.4687 23.9088 38.2231 24.1262 37.9286 24.2502C37.6341 24.3741 37.307 24.3976 36.9977 24.3171L36.9687 24.3084L33.2072 23.3018L24.2705 32.2385V33.0909C24.2705 33.8624 23.964 34.6024 23.4184 35.1479C22.8729 35.6935 22.1329 36 21.3614 36H12.6341C11.8626 36 11.1226 35.6935 10.5771 35.1479C10.0315 34.6024 9.72502 33.8624 9.72502 33.0909V31.7411L3.1272 25.1433C1.76502 23.7782 1 21.9285 1 20C1 18.0715 1.76502 16.2218 3.1272 14.8567C3.802 14.1805 4.60375 13.6443 5.48639 13.2789C6.36903 12.9134 7.31518 12.726 8.27047 12.7273H9.72502ZM9.72502 15.6364H8.27047C7.40714 15.636 6.56309 15.8917 5.84513 16.3711C5.12717 16.8506 4.56757 17.5322 4.23713 18.3298C3.9067 19.1274 3.82028 20.0051 3.98881 20.8518C4.15735 21.6986 4.57326 22.4763 5.18393 23.0865L9.72502 27.6247V15.6364ZM21.3614 12.7273V11.2727C21.3614 10.1154 20.9016 9.00551 20.0833 8.18717C19.265 7.36883 18.1551 6.90909 16.9977 6.90909C15.8404 6.90909 14.7305 7.36883 13.9122 8.18717C13.0938 9.00551 12.6341 10.1154 12.6341 11.2727V12.7273H21.3614Z" fill="white"/>
</g>
</svg>
