<svg width="0" height="0" class="hidden">
  <symbol xmlns="http://www.w3.org/2000/svg" viewBox="0 0 60 60" id="skill-1">
    <path d="M50 15H40v-5c0-2.75-2.25-5-5-5H25c-2.75 0-5 2.25-5 5v5H10c-2.75 0-5 2.25-5 5v30c0 2.75 2.25 5 5 5h40c2.75 0 5-2.25 5-5V20c0-2.75-2.25-5-5-5zm-25-5h10v5H25v-5zm12.5 27.5h-5v5c0 1.375-1.125 2.5-2.5 2.5a2.507 2.507 0 01-2.5-2.5v-5h-5A2.507 2.507 0 0120 35c0-1.375 1.125-2.5 2.5-2.5h5v-5c0-1.375 1.125-2.5 2.5-2.5s2.5 1.125 2.5 2.5v5h5c1.375 0 2.5 1.125 2.5 2.5s-1.125 2.5-2.5 2.5z"></path>
  </symbol>
  <symbol xmlns="http://www.w3.org/2000/svg" viewBox="0 0 60 60" id="skill-2">
    <path d="M51.777 26.777a89.771 89.771 0 00-1.513 1.66 77.681 77.681 0 00-1.978 2.344c-.797.977-1.44 1.953-1.929 2.93-.488.977-.732 1.823-.732 2.539 0 .879-1.522 1.62-4.565 2.222-3.044.602-6.73.903-11.06.903s-8.016-.301-11.06-.903c-3.043-.602-4.565-1.343-4.565-2.222 0-.944-.44-2.124-1.318-3.54-.88-1.416-1.701-2.555-2.466-3.418a55.41 55.41 0 00-2.27-2.417C6.106 24.727 5 22.122 5 19.062c0-3.027 1.066-5.607 3.198-7.739 2.132-2.132 4.712-3.198 7.74-3.198.748 0 1.53.081 2.343.244-.52 1.335-.781 2.816-.781 4.444 0 3.483 1.074 6.38 3.223 8.69a150.696 150.696 0 01-.098-5.566c0-3.027.912-5.607 2.734-7.739C25.182 6.066 27.396 5 30 5s4.818 1.066 6.64 3.198c1.824 2.132 2.735 4.712 2.735 7.74 0 1.985-.032 3.84-.098 5.566 2.149-2.311 3.223-5.208 3.223-8.692 0-1.627-.26-3.108-.781-4.443a11.951 11.951 0 012.343-.244c3.028 0 5.608 1.066 7.74 3.198C53.934 13.455 55 16.035 55 19.063c0 3.027-1.074 5.599-3.223 7.714zM29.976 42.5c4.313 0 8-.31 11.06-.928 3.06-.618 4.589-1.35 4.589-2.197v12.5c0 .846-1.53 1.579-4.59 2.197-3.06.619-6.746.928-11.06.928-4.313 0-7.99-.31-11.035-.928-3.043-.618-4.565-1.35-4.565-2.197v-12.5c0 .879 1.522 1.62 4.565 2.222 3.044.602 6.722.903 11.036.903z"></path>
  </symbol>
  <symbol xmlns="http://www.w3.org/2000/svg" viewBox="0 0 60 60" id="skill-3">
    <path d="M56.054 50.813L45.507 25.265a2.578 2.578 0 00-4.766 0L30.195 50.813a2.578 2.578 0 104.766 1.967l2.148-5.202H49.14l2.148 5.202a2.579 2.579 0 104.765-1.968h.001zm-16.816-8.391l3.887-9.416 3.887 9.416h-7.774zm-7.85-2.236a2.578 2.578 0 00-.574-3.598c-.023-.017-1.757-1.304-4.276-4.07 4.647-6.29 7.279-13.447 8.352-16.815h3.782a2.578 2.578 0 000-5.156H25.078V8.203a2.578 2.578 0 10-5.156 0v2.344H6.328a2.578 2.578 0 100 5.156h23.115c-1.115 3.158-3.17 8.145-6.303 12.699-3.681-4.885-5.049-8.045-5.06-8.071a2.578 2.578 0 00-4.755 1.992c.068.162 1.706 4.011 6.195 9.836.108.139.214.275.321.41-4.598 5.198-9.11 8.422-10.998 9.463a2.579 2.579 0 002.47 4.527c.252-.139 5.694-3.152 11.909-10.03 2.639 2.821 4.453 4.153 4.562 4.23a2.579 2.579 0 003.604-.574z"></path>
  </symbol>
  <symbol xmlns="http://www.w3.org/2000/svg" viewBox="0 0 60 60" id="skill-4">
    <path fill-rule="evenodd" clip-rule="evenodd" d="M5 25C5 14.988 14.33 7.5 25 7.5S45 14.988 45 25c0 10.013-9.33 17.5-20 17.5a22.43 22.43 0 01-8.07-1.48l-9.035 1.45a2.5 2.5 0 01-2.783-3.215l2-6.408A15.713 15.713 0 015 25zm20 20.417c-2.355 0-4.637-.307-6.79-.877 3.63 4.867 9.932 7.96 16.79 7.96a22.426 22.426 0 008.07-1.48l9.035 1.45a2.5 2.5 0 002.783-3.215l-2-6.408A15.713 15.713 0 0055 35c0-5.43-2.745-10.117-6.958-13.27.194 1.08.29 2.174.29 3.27 0 11.682-10.882 20.417-23.332 20.417z"></path>
  </symbol>
  <symbol xmlns="http://www.w3.org/2000/svg" viewBox="0 0 60 60" id="skill-5">
    <path d="M7.5 32.5A22.5 22.5 0 0030 55 22.5 22.5 0 007.5 32.5zM30 55a22.5 22.5 0 0022.5-22.5A22.5 22.5 0 0030 55zM45 7.5V20a15 15 0 01-30 0V7.5c1.85 0 3.675.3 5.4.975 1.375.575 2.6 1.425 3.625 2.5L30 5l5.975 5.975a10.705 10.705 0 013.625-2.5A14.75 14.75 0 0145 7.5z"></path>
  </symbol>
  <symbol xmlns="http://www.w3.org/2000/svg" viewBox="0 0 60 60" id="skill-6">
    <path d="M49.435 4.38a3.03 3.03 0 00-2.649-.523l-23.358 6.28a3.785 3.785 0 00-2.803 3.692v26.484c0 .79-.51 1.472-1.302 1.738l-.014.006-6.094 2.11c-2.33.779-3.84 2.943-3.84 5.51a6.509 6.509 0 002.723 5.348 6.42 6.42 0 005.842.882l.045-.015 2.56-.93a5.607 5.607 0 003.83-5.285V24.835c0-.854.56-1.548 1.425-1.766l.025-.007 20.464-5.466a.467.467 0 01.586.452V34.68c0 .79-.498 1.45-1.302 1.72l-.029.01-5.964 2.123a5.752 5.752 0 00-3.955 5.52 6.524 6.524 0 002.722 5.368 6.402 6.402 0 005.846.861l.042-.014 2.56-.931a5.605 5.605 0 003.83-5.283V6.797a3.016 3.016 0 00-1.19-2.417z"></path>
  </symbol>
  <symbol xmlns="http://www.w3.org/2000/svg" viewBox="0 0 60 60" id="skill-7">
    <path d="M51.68 39.398l-.007-.005c-1.164-1.076-2.67-1.33-3.77-1.514l-.08-.014c-1.06-.175-1.228-.294-1.709-.724-.285-.254-.627-.662-.627-1.164 0-.503.341-.911.626-1.165l3.549-3.15c3.037-2.684 4.71-6.287 4.71-10.146 0-3.86-1.67-7.463-4.71-10.149-4.206-3.702-9.961-5.742-16.215-5.742-7.23 0-14.463 2.739-19.853 7.513-5.141 4.543-7.969 10.63-7.969 17.137 0 6.508 2.831 12.595 7.969 17.137 2.549 2.254 5.565 4.005 8.967 5.205a31.192 31.192 0 0010.18 1.758h.212c7.149 0 13.956-2.41 18.679-6.61 1.136-1.002 1.775-2.44 1.797-4.05.025-1.66-.629-3.275-1.75-4.317zM13.125 24.375a3.75 3.75 0 117.5 0 3.75 3.75 0 01-7.5 0zm4.688 15.82a3.75 3.75 0 110-7.5 3.75 3.75 0 010 7.5zm4.687-23.32a3.75 3.75 0 117.5 0 3.75 3.75 0 01-7.5 0zM30 48.633a5.625 5.625 0 110-11.25 5.625 5.625 0 010 11.25zm8.438-28.008a3.75 3.75 0 110-7.5 3.75 3.75 0 010 7.5z"></path>
  </symbol>
  <symbol xmlns="http://www.w3.org/2000/svg" viewBox="0 0 60 60" id="skill-8">
    <path d="M30 39.375a7.5 7.5 0 100-15 7.5 7.5 0 000 15z"></path>
    <path d="M50.625 16.875h-6.914c-.352 0-.788-.227-1.127-.586l-3.04-4.798a1.827 1.827 0 00-.16-.216c-1.05-1.225-2.47-1.9-3.993-1.9H24.609c-1.523 0-2.942.675-3.992 1.9-.059.068-.113.14-.16.216l-3.04 4.805c-.26.284-.626.586-1.01.586v-.938a1.875 1.875 0 00-1.876-1.875H11.72a1.875 1.875 0 00-1.875 1.875v.938h-.469a5.63 5.63 0 00-5.625 5.625V45a5.63 5.63 0 005.625 5.625h41.25A5.631 5.631 0 0056.25 45V22.5a5.631 5.631 0 00-5.625-5.625zM30 43.125a11.25 11.25 0 1111.25-11.25A11.263 11.263 0 0130 43.125z"></path>
  </symbol>
  <symbol xmlns="http://www.w3.org/2000/svg" viewBox="0 0 60 60" id="skill-9">
    <path d="M18.438 41.952l3.125-3.905-10.06-8.048 10.06-8.047-3.125-3.905-12.5 10a2.5 2.5 0 000 3.905l12.5 10zm23.125-23.905l-3.126 3.905 10.06 8.047-10.06 8.048 3.126 3.905 12.5-10a2.5 2.5 0 000-3.905l-12.5-10zM37.44 8.04l-10 45-4.883-1.085 10-45L37.44 8.04z"></path>
  </symbol>
  <symbol xmlns="http://www.w3.org/2000/svg" viewBox="0 0 60 60" id="skill-10">
    <path d="M37.53 11.25c3.12 0 5.648-2.518 5.648-5.625S40.649 0 37.53 0c-3.119 0-5.648 2.518-5.648 5.625s2.529 5.625 5.648 5.625zM18.903 37.203l-1.741 4.046h-7.87a3.758 3.758 0 00-3.766 3.75c0 2.07 1.686 3.75 3.765 3.75h9.113a5.636 5.636 0 005.19-3.41l1.034-2.404-1.255-.738c-2.038-1.199-3.537-2.973-4.47-4.994zM50.708 26.25h-5.18l-3.067-6.24c-1.47-2.994-4.17-5.184-7.269-5.97l-8.363-2.477a11.283 11.283 0 00-9.512 2.008l-4.668 3.564a3.737 3.737 0 00-.696 5.257 3.776 3.776 0 005.278.694l4.67-3.564c.903-.69 2.052-.937 2.974-.72l1.73.513-4.409 10.24c-1.484 3.455-.154 7.502 3.095 9.412l9.999 5.88-3.232 10.28a3.746 3.746 0 002.467 4.698 3.766 3.766 0 004.718-2.457l3.723-11.843c.695-2.434-.34-5.049-2.546-6.374l-7.206-4.235 3.684-9.174 2.385 4.855a5.685 5.685 0 005.073 3.152h6.352c2.08 0 3.766-1.68 3.766-3.75a3.757 3.757 0 00-3.766-3.75z"></path>
  </symbol>
  <symbol xmlns="http://www.w3.org/2000/svg" viewBox="0 0 60 60" id="skill-11">
    <path d="M32.831 28.452l-3.06-3.061a3.75 3.75 0 00-5.29-.014L3.21 45.009c-.775.73-1.284 1.66-1.33 2.703a3.763 3.763 0 001.079 2.805l4.57 4.62a3.784 3.784 0 002.667 1.112h.139c1.042-.038 1.974-.526 2.715-1.308l19.77-21.176a3.748 3.748 0 00.012-5.313zm24.59-6.186l-.035-.037-4.016-3.975a2.514 2.514 0 00-1.791-.733c-.538 0-1.063.17-1.499.485 0-.05.007-.1.01-.143.053-.762.135-1.913-.609-2.956a30.228 30.228 0 00-2.915-3.377c-1.561-1.537-4.959-4.433-10.163-6.555a16.354 16.354 0 00-6.22-1.225c-3.699 0-6.511 1.669-7.588 2.658a14.05 14.05 0 00-1.662 1.9 1.875 1.875 0 002.186 2.853 8.752 8.752 0 011.005-.308 7.435 7.435 0 012.162-.135c1.546.128 3.374.895 4.183 1.534 1.37 1.103 2.03 2.589 2.14 4.815.02.448-.905 2.126-2.344 4.04a1.875 1.875 0 00.17 2.462l4.032 4.032a1.875 1.875 0 002.578.073c1.14-1.018 2.877-2.554 3.484-2.93.901-.554 1.546-.66 1.723-.68.46-.045.921.053 1.323.28a.144.144 0 01-.036.11l-.214.203-.035.033a2.523 2.523 0 00.006 3.58l4.015 3.973a2.516 2.516 0 001.79.732 2.543 2.543 0 001.784-.726l6.504-6.424a2.563 2.563 0 00.033-3.559z"></path>
  </symbol>
</svg>