<svg width="40" height="40" viewBox="0 0 40 40" fill="none" xmlns="http://www.w3.org/2000/svg">
<circle opacity="0.5" cx="20" cy="20" r="20" fill="#F94877"/>
<path d="M21.875 20C22.4963 20 23 19.4963 23 18.875C23 18.2537 22.4963 17.75 21.875 17.75C21.2537 17.75 20.75 18.2537 20.75 18.875C20.75 19.4963 21.2537 20 21.875 20Z" fill="white"/>
<path d="M25.625 20C26.2463 20 26.75 19.4963 26.75 18.875C26.75 18.2537 26.2463 17.75 25.625 17.75C25.0037 17.75 24.5 18.2537 24.5 18.875C24.5 19.4963 25.0037 20 25.625 20Z" fill="white"/>
<path d="M21.875 23.75C22.4963 23.75 23 23.2463 23 22.625C23 22.0037 22.4963 21.5 21.875 21.5C21.2537 21.5 20.75 22.0037 20.75 22.625C20.75 23.2463 21.2537 23.75 21.875 23.75Z" fill="white"/>
<path d="M25.625 23.75C26.2463 23.75 26.75 23.2463 26.75 22.625C26.75 22.0037 26.2463 21.5 25.625 21.5C25.0037 21.5 24.5 22.0037 24.5 22.625C24.5 23.2463 25.0037 23.75 25.625 23.75Z" fill="white"/>
<path d="M14.375 23.75C14.9963 23.75 15.5 23.2463 15.5 22.625C15.5 22.0037 14.9963 21.5 14.375 21.5C13.7537 21.5 13.25 22.0037 13.25 22.625C13.25 23.2463 13.7537 23.75 14.375 23.75Z" fill="white"/>
<path d="M18.125 23.75C18.7463 23.75 19.25 23.2463 19.25 22.625C19.25 22.0037 18.7463 21.5 18.125 21.5C17.5037 21.5 17 22.0037 17 22.625C17 23.2463 17.5037 23.75 18.125 23.75Z" fill="white"/>
<path d="M14.375 27.5C14.9963 27.5 15.5 26.9963 15.5 26.375C15.5 25.7537 14.9963 25.25 14.375 25.25C13.7537 25.25 13.25 25.7537 13.25 26.375C13.25 26.9963 13.7537 27.5 14.375 27.5Z" fill="white"/>
<path d="M18.125 27.5C18.7463 27.5 19.25 26.9963 19.25 26.375C19.25 25.7537 18.7463 25.25 18.125 25.25C17.5037 25.25 17 25.7537 17 26.375C17 26.9963 17.5037 27.5 18.125 27.5Z" fill="white"/>
<path d="M21.875 27.5C22.4963 27.5 23 26.9963 23 26.375C23 25.7537 22.4963 25.25 21.875 25.25C21.2537 25.25 20.75 25.7537 20.75 26.375C20.75 26.9963 21.2537 27.5 21.875 27.5Z" fill="white"/>
<path fill-rule="evenodd" clip-rule="evenodd" d="M12.5 12.5C11.6716 12.5 11 13.1716 11 14V27.5C11 28.3284 11.6716 29 12.5 29H27.5C28.3284 29 29 28.3284 29 27.5V14C29 13.1716 28.3284 12.5 27.5 12.5H12.5ZM9.5 14C9.5 12.3431 10.8431 11 12.5 11H27.5C29.1569 11 30.5 12.3431 30.5 14V27.5C30.5 29.1569 29.1569 30.5 27.5 30.5H12.5C10.8431 30.5 9.5 29.1569 9.5 27.5V14Z" fill="white"/>
<path fill-rule="evenodd" clip-rule="evenodd" d="M14 9.5C14.4142 9.5 14.75 9.83579 14.75 10.25V11.75C14.75 12.1642 14.4142 12.5 14 12.5C13.5858 12.5 13.25 12.1642 13.25 11.75V10.25C13.25 9.83579 13.5858 9.5 14 9.5ZM26 9.5C26.4142 9.5 26.75 9.83579 26.75 10.25V11.75C26.75 12.1642 26.4142 12.5 26 12.5C25.5858 12.5 25.25 12.1642 25.25 11.75V10.25C25.25 9.83579 25.5858 9.5 26 9.5Z" fill="white"/>
<path fill-rule="evenodd" clip-rule="evenodd" d="M10.25 14.75H29.75V16.25H10.25V14.75Z" fill="white"/>
</svg>
