<svg width="40" height="40" viewBox="0 0 40 40" fill="none" xmlns="http://www.w3.org/2000/svg">
<circle opacity="0.5" cx="20" cy="20" r="20" fill="#F94877"/>
<path d="M26.3282 30.5001C25.4132 30.5001 24.1278 30.1691 22.2032 29.0938C19.8627 27.7813 18.0524 26.5696 15.7246 24.2479C13.4802 22.0049 12.388 20.5527 10.8594 17.7711C9.13254 14.6305 9.42691 12.9843 9.75597 12.2807C10.1478 11.4397 10.7263 10.9368 11.4739 10.4376C11.8986 10.1593 12.348 9.92081 12.8164 9.72505C12.8633 9.7049 12.9069 9.68568 12.9458 9.66833C13.1778 9.5638 13.5294 9.40583 13.9747 9.57458C14.2719 9.68615 14.5372 9.91443 14.9525 10.3246C15.8043 11.1646 16.9682 13.0354 17.3975 13.9541C17.6858 14.5733 17.8766 14.9821 17.8771 15.4405C17.8771 15.9772 17.6071 16.3911 17.2794 16.8379C17.218 16.9218 17.1571 17.0019 17.098 17.0797C16.7413 17.5485 16.663 17.684 16.7146 17.9258C16.8191 18.4119 17.5986 19.859 18.8797 21.1372C20.1608 22.4155 21.5661 23.1458 22.0541 23.2499C22.3063 23.3038 22.4446 23.2222 22.9283 22.8529C22.9977 22.7999 23.0689 22.7451 23.1435 22.6902C23.6432 22.3185 24.0378 22.0555 24.5619 22.0555H24.5647C25.0208 22.0555 25.4113 22.2533 26.0582 22.5796C26.9019 23.0052 28.8289 24.1541 29.6741 25.0068C30.0852 25.4211 30.3144 25.6855 30.4264 25.9822C30.5952 26.429 30.4363 26.7791 30.3327 27.0135C30.3153 27.0524 30.2961 27.0951 30.276 27.1424C30.0787 27.61 29.8387 28.0585 29.5593 28.4821C29.061 29.2274 28.5561 29.8044 27.7133 30.1968C27.2805 30.4015 26.8069 30.5052 26.3282 30.5001Z" fill="white"/>
</svg>
