<svg width="40" height="40" viewBox="0 0 40 40" fill="none" xmlns="http://www.w3.org/2000/svg">
<circle opacity="0.5" cx="20" cy="20" r="20" fill="#F94877"/>
<path d="M20 9.5C15.8595 9.5 12.5 12.5239 12.5 16.25C12.5 22.25 20 30.5 20 30.5C20 30.5 27.5 22.25 27.5 16.25C27.5 12.5239 24.1405 9.5 20 9.5ZM20 20C19.4067 20 18.8266 19.8241 18.3333 19.4944C17.8399 19.1648 17.4554 18.6962 17.2284 18.1481C17.0013 17.5999 16.9419 16.9967 17.0576 16.4147C17.1734 15.8328 17.4591 15.2982 17.8787 14.8787C18.2982 14.4591 18.8328 14.1734 19.4147 14.0576C19.9967 13.9419 20.5999 14.0013 21.1481 14.2284C21.6962 14.4554 22.1648 14.8399 22.4944 15.3333C22.8241 15.8266 23 16.4067 23 17C22.9991 17.7954 22.6828 18.5579 22.1204 19.1204C21.5579 19.6828 20.7954 19.9991 20 20Z" fill="white"/>
</svg>
