<svg width="34" height="33" viewBox="0 0 34 33" fill="none" xmlns="http://www.w3.org/2000/svg">
<path fill-rule="evenodd" clip-rule="evenodd" d="M7.88861 2.90512C10.5609 1.11955 13.7027 0.166504 16.9166 0.166504C21.2264 0.166504 25.3596 1.87855 28.4071 4.92602C31.4546 7.97348 33.1666 12.1067 33.1666 16.4165C33.1666 19.6304 32.2136 22.7722 30.428 25.4445C28.6424 28.1168 26.1045 30.1996 23.1352 31.4295C20.1659 32.6595 16.8986 32.9813 13.7464 32.3543C10.5942 31.7272 7.69875 30.1796 5.42615 27.907C3.15354 25.6344 1.60588 22.7389 0.978872 19.5867C0.351863 16.4345 0.673667 13.1672 1.90359 10.1979C3.13351 7.2286 5.21632 4.69069 7.88861 2.90512ZM16.9166 2.87484C14.2383 2.87484 11.6202 3.66904 9.39328 5.15702C7.16637 6.645 5.4307 8.75991 4.40576 11.2343C3.38083 13.7087 3.11266 16.4315 3.63517 19.0583C4.15767 21.6852 5.44739 24.0981 7.34123 25.9919C9.23506 27.8857 11.648 29.1755 14.2748 29.698C16.9016 30.2205 19.6244 29.9523 22.0988 28.9274C24.5732 27.9024 26.6881 26.1668 28.1761 23.9398C29.6641 21.7129 30.4583 19.0948 30.4583 16.4165C30.4583 12.825 29.0316 9.38065 26.492 6.8411C23.9525 4.30154 20.5081 2.87484 16.9166 2.87484Z" fill="white"/>
<path fill-rule="evenodd" clip-rule="evenodd" d="M14.8854 6.9375C13.4124 6.9375 11.9724 7.37431 10.7476 8.1927C9.52278 9.01109 8.56816 10.1743 8.00444 11.5352C7.44073 12.8962 7.29323 14.3937 7.58061 15.8384C7.86799 17.2832 8.57734 18.6103 9.61895 19.6519C10.6606 20.6935 11.9876 21.4028 13.4324 21.6902C14.8772 21.9776 16.3747 21.8301 17.7356 21.2664C18.2198 21.0658 18.679 20.8158 19.1066 20.5216L22.73 24.1451C23.2588 24.6739 24.1163 24.6739 24.6451 24.1451C25.1739 23.6163 25.1739 22.7588 24.6451 22.23L21.0216 18.6066C21.0407 18.5789 21.0595 18.5512 21.0781 18.5233C21.8965 17.2985 22.3333 15.8585 22.3333 14.3854C22.3333 13.4073 22.1407 12.4388 21.7664 11.5352C21.3921 10.6316 20.8435 9.81055 20.1519 9.11894C19.4603 8.42734 18.6392 7.87873 17.7356 7.50444C16.832 7.13015 15.8635 6.9375 14.8854 6.9375ZM12.2522 10.4446C13.0317 9.9238 13.948 9.64583 14.8854 9.64583C15.5078 9.64583 16.1241 9.76843 16.6992 10.0066C17.2742 10.2448 17.7967 10.5939 18.2368 11.034C18.6769 11.4741 19.026 11.9966 19.2642 12.5717C19.5024 13.1467 19.625 13.763 19.625 14.3854C19.625 15.3228 19.347 16.2392 18.8262 17.0186C18.3054 17.798 17.5652 18.4055 16.6992 18.7642C15.8331 19.1229 14.8802 19.2168 13.9608 19.0339C13.0414 18.8511 12.1969 18.3996 11.534 17.7368C10.8712 17.074 10.4198 16.2295 10.2369 15.3101C10.054 14.3907 10.1479 13.4377 10.5066 12.5717C10.8653 11.7056 11.4728 10.9654 12.2522 10.4446Z" fill="white"/>
</svg>
