<svg width="41" height="40" viewBox="0 0 41 40" fill="none" xmlns="http://www.w3.org/2000/svg">
<g opacity="0.9">
<path d="M20.5 36.25C11.5398 36.25 4.25 28.9602 4.25 20C4.25 11.0398 11.5398 3.75 20.5 3.75C29.4602 3.75 36.75 11.0398 36.75 20C36.75 28.9602 29.4602 36.25 20.5 36.25ZM20.5 6.25C12.9219 6.25 6.75 12.4219 6.75 20C6.75 27.5781 12.9219 33.75 20.5 33.75C28.0781 33.75 34.25 27.582 34.25 20C34.25 12.418 28.082 6.25 20.5 6.25Z" fill="white"/>
<path d="M25.7867 22.8125C24.4273 22.8125 23.1141 22.2094 22.0883 21.1148C21.0737 20.0143 20.467 18.5992 20.3695 17.1055C20.2547 15.4883 20.7508 14 21.7664 12.9164C22.782 11.8328 24.2016 11.25 25.7867 11.25C27.3602 11.25 28.7844 11.8453 29.7969 12.9266C30.8094 14.0078 31.318 15.5047 31.2031 17.107C31.1038 18.5998 30.4974 20.0139 29.4844 21.1148C28.4578 22.2094 27.1453 22.8125 25.7867 22.8125ZM13.2984 23.075C10.9734 23.075 8.92891 20.9258 8.74141 18.2836C8.64531 16.9305 9.06563 15.6797 9.92656 14.7617C10.7875 13.8438 11.975 13.3555 13.2977 13.3555C14.6203 13.3555 15.807 13.8586 16.6625 14.7727C17.518 15.6867 17.9516 16.9461 17.8539 18.2883C17.6633 20.9266 15.6195 23.075 13.2984 23.075ZM33.3414 27.7563C33.2172 27.3891 32.9148 26.9977 32.3086 26.6266C30.4758 25.507 28.2211 24.9148 25.7867 24.9148C23.3984 24.9148 21.0813 25.532 19.2609 26.6531C17.2102 27.9164 15.832 29.7586 15.2766 31.9797C15.1453 32.5023 14.9539 33.475 15.1586 34.0195C18.4433 35.2686 22.0622 35.326 25.3849 34.1815C28.7075 33.037 31.5234 30.7633 33.3422 27.7563H33.3414ZM13.2836 31.357C13.8359 29.1531 15.0117 27.3156 16.8359 25.8297C16.9222 25.7585 16.9878 25.6656 17.0258 25.5604C17.0639 25.4553 17.0731 25.3419 17.0524 25.232C17.0318 25.1222 16.982 25.0199 16.9083 24.9358C16.8347 24.8517 16.7398 24.7889 16.6336 24.7539C15.6961 24.4547 14.6258 24.2945 13.2984 24.2945C11.4375 24.2945 9.46172 24.7984 7.975 25.7141C7.55312 25.9742 7.13906 26.0742 6.82031 26.1633C8.10006 28.9917 10.2223 31.3558 12.8969 32.932L13.0367 32.9211C13.0673 32.3929 13.15 31.869 13.2836 31.357V31.357Z" fill="white"/>
</g>
</svg>
