<svg width="40" height="40" viewBox="0 0 40 40" fill="none" xmlns="http://www.w3.org/2000/svg">
<g opacity="0.9">
<path d="M25.5814 23.7063C25.6909 24.2302 25.6823 24.7719 25.5564 25.2921C25.4306 25.8123 25.1905 26.2979 24.8536 26.7138C24.5167 27.1297 24.0914 27.4653 23.6087 27.6965C23.126 27.9276 22.5979 28.0484 22.0627 28.05C21.327 28.0605 20.6063 27.8421 20.0002 27.425V33.2813C20.0002 33.5134 19.9355 33.741 19.8135 33.9384C19.6914 34.1359 19.5168 34.2955 19.3092 34.3993C19.1015 34.5031 18.8691 34.5471 18.6379 34.5262C18.4067 34.5054 18.1859 34.4206 18.0002 34.2813C14.8127 31.8625 8.62516 26.9125 5.93766 22.8438C2.81266 18.1938 1.73141 11.0875 5.68766 7.13128C7.58621 5.23444 10.1602 4.16895 12.8439 4.16895C15.5277 4.16895 18.1016 5.23444 20.0002 7.13128V11.4563C19.5772 11.1753 19.0998 10.9867 18.599 10.9027C18.0982 10.8187 17.5854 10.8412 17.0939 10.9688C16.5822 11.0949 16.1045 11.3321 15.6947 11.6635C15.2848 11.9948 14.9529 12.4123 14.7224 12.8862C14.4919 13.3602 14.3684 13.879 14.3608 14.406C14.3532 14.9329 14.4615 15.4551 14.6782 15.9356C14.8949 16.416 15.2146 16.8429 15.6146 17.186C16.0147 17.5291 16.4853 17.78 16.9931 17.9209C17.501 18.0619 18.0336 18.0894 18.5533 18.0015C19.0729 17.9137 19.5669 17.7126 20.0002 17.4125V21.5125C20.4859 21.1694 21.0493 20.9523 21.6398 20.8809C22.2302 20.8096 22.8291 20.8861 23.3826 21.1037C23.9361 21.3212 24.4269 21.673 24.8107 22.1273C25.1945 22.5816 25.4594 23.1242 25.5814 23.7063Z" stroke="white" stroke-width="2" stroke-linecap="round" stroke-linejoin="round"/>
<path d="M34.0627 22.8125C31.3502 26.875 25.1939 31.8313 22.0002 34.25C21.8145 34.3893 21.5936 34.4741 21.3624 34.495C21.1312 34.5158 20.8988 34.4719 20.6911 34.3681C20.4835 34.2643 20.3089 34.1047 20.1869 33.9072C20.0648 33.7097 20.0002 33.4822 20.0002 33.25V27.4C20.6063 27.8171 21.327 28.0355 22.0627 28.025C22.6329 28.0334 23.197 27.9062 23.7085 27.6538C24.2199 27.4015 24.6641 27.0312 25.0044 26.5736C25.3448 26.1159 25.5715 25.584 25.6659 25.0215C25.7603 24.4591 25.7198 23.8822 25.5476 23.3385C25.3754 22.7948 25.0765 22.2998 24.6755 21.8942C24.2745 21.4887 23.7829 21.1842 23.2412 21.0059C22.6994 20.8276 22.1231 20.7805 21.5596 20.8686C20.9961 20.9567 20.4616 21.1774 20.0002 21.5125V17.4125C19.5654 17.6977 19.0739 17.8851 18.5597 17.9618C18.0454 18.0386 17.5207 18.0028 17.0216 17.857C16.5225 17.7112 16.061 17.4588 15.6689 17.1174C15.2769 16.7759 14.9636 16.3534 14.7507 15.879C14.5378 15.4047 14.4303 14.8898 14.4357 14.3699C14.4412 13.8499 14.5594 13.3374 14.7821 12.8676C15.0049 12.3978 15.327 11.982 15.7261 11.6487C16.1252 11.3155 16.5919 11.0729 17.0939 10.9375C17.5854 10.81 18.0982 10.7875 18.599 10.8715C19.0998 10.9555 19.5772 11.1441 20.0002 11.425V7.10003C21.8987 5.20319 24.4727 4.1377 27.1564 4.1377C29.8402 4.1377 32.4141 5.20319 34.3127 7.10003C38.2689 11.0563 37.1627 18.1625 34.0627 22.8125V22.8125Z" stroke="white" stroke-width="2" stroke-linecap="round" stroke-linejoin="round"/>
</g>
</svg>
