<svg width="40" height="40" viewBox="0 0 40 40" fill="none" xmlns="http://www.w3.org/2000/svg">
<g opacity="0.9">
<path d="M30 6.25H10C7.96875 6.25 6.64062 7.34375 6.25 9.375L3.75 21.25V30C3.75289 30.9937 4.1489 31.9458 4.85154 32.6485C5.55417 33.3511 6.50633 33.7471 7.5 33.75H32.5C33.4937 33.7471 34.4458 33.3511 35.1485 32.6485C35.8511 31.9458 36.2471 30.9937 36.25 30V21.25L33.75 9.375C33.3594 7.26562 31.9531 6.25 30 6.25Z" stroke="white" stroke-width="2" stroke-linejoin="round"/>
<path d="M10 16.25H30M3.75 21.25H15H3.75ZM25 21.25H36.25H25ZM15 21.25C15 22.5761 15.5268 23.8479 16.4645 24.7855C17.4021 25.7232 18.6739 26.25 20 26.25C21.3261 26.25 22.5979 25.7232 23.5355 24.7855C24.4732 23.8479 25 22.5761 25 21.25H15ZM11.25 11.25H28.75H11.25Z" stroke="white" stroke-width="2" stroke-linecap="round" stroke-linejoin="round"/>
</g>
</svg>
